<svg id="Layer_1" xmlns="http://www.w3.org/2000/svg" viewBox="0 0 1920 900" preserveAspectRatio="xMaxYMax"><style>.st0{fill:#faffff}.st1{fill:#518360}.st2{fill:#e9feff}.st3{fill:#89b636}.st4{fill:#0a606b}.st5{fill:#273654}.st6{fill:#bf0000}.st7{fill:#ffd56c}.st8{fill:#3c6b5f}.st9{fill:#FFF}.st10{fill:#bbecff}.st11{fill:#cee9ea}</style><path class="st0" d="M1042.5 525.7c-112.3-84.4-297.2-85.8-419.2-233.5-110.6-134-167.6-141.5-323.5-168.8C195.1 105.1 84.5 105.3 0 8v892h1281.7c-19.9-153.7-140.8-300.4-239.2-374.3z"/><path class="st0" d="M1549.4 150.3c-59.4 46.9-100 132.1-159.9 179.4-70.6 56-159.4 41.4-225.9 104.1-66.5 62.5-91.6 177.8-164.8 235.2-72 56.5-156.8 61.8-236.4 68.3-117.8 9.6-296.3 14-376.7 162.6H1920V16.8c-102.7 91.4-268.2 52.4-370.6 133.5z"/><path class="st1" d="M1920 187.8c-142.7 43.8-287.8 65.5-411.4 228-48.1 63.2-91.2 146.2-141.4 200.2-69.8 75-148.5 88.3-224.5 116.9C1075 758.4 1005 801 952.7 900H1920V187.8z"/><path class="st2" d="M1363 592.8c-59.8 64.3-190.5 130.1-256 152.2-13.3 62.8 55.5 107 55.1 155l51.9-103.2c51.6-98.2 80.1-75.8 148.5-85.6 68.4-9.9 71.1-106.2 115.3-141.2 39.5-31.2 79 .3 125.2-53 46.1-52.9 108-126.7 127.3-115s10 50.7 25 47.3c15-3.3 4.3-55 16-79.3s110.5-173.1 115.8-25.4c4.5 124.9 23.7-7.9 32.9-59.6V177c-142.7 43.8-289.4 53.4-413 216-48.2 63.2-93.8 145.8-144 199.8z"/><path class="st3" d="M1255 845.6c-83.1-55.2-88.5-107.5-159.6-163.3C970.5 584.2 818 572.7 697.9 528c-147.2-54.8-152.1-184.8-356.1-245.8-132.9-39.6-240.9-21-341.8-54.4V900h1422.5c-59.1-8.5-121-23.3-167.5-54.4z"/><path class="st2" d="M76.5 333.4s22.1-30.4 46.6-17.9 30.6 65.4 43.3 54.2c8.3-7.3 10-29.4 18.1-36.5 10.7-9.4 22.3 58.7 39.1 59.4 16.8.7 15.3-63.2 28-56.2 12.7 6.9 19.4 42.9 22.7 51 4 10 6.6 19.4 12 27.1 28.7 40.4 67.1 7.1 97.5 41.7 23 26.2 38.8 86.2 69.8 64.8 12.9-9 24.7-25.8 38.1-34.2 12-7.5 22.9-5.4 34.2 5.8 13.8 13.5 26.1 37.1 41.5 42.9 12.8 5 27.3 7.7 39.6-1 14.3-10.2 29.9-24 40.3 7.3 5.8 17.7 6.6 40.8 13.1 57.5 18.8 48.3 41.8 15.6 60.1-11 16.7-24.2 33.5-31.2 48.8.8 10.6 22.3 4.4 72 28 75s37.7-48.2 53.4-51.2 40.2 29.8 72.1 43.7c31.9 14 89.4-27.1 90.4 42.1.6 34.4 7.5 13.5 17.6-15.1 13.3-37.5 92.5 26.2 88.7 61.8-4.1 38.7 7.5 62.8 14.6 37.6 14.8-52.7 62.3 28.6 72.6 36 10.3 7.4 28.9 17.9 36.7 18.5-58.1-47.3-84-111.2-143.8-159.5-1.2-.8-2.3-1.9-3.5-2.7-124.9-98.1-277.9-109.4-398-154.2-147.2-54.8-151.3-187.5-355.3-248.5C209.8 233 100.9 242.3 0 209v138.2c.8 1.2 1.6 2.7 2.4 4 23.9 34.9 74.1-17.8 74.1-17.8z"/><path class="st4" d="M79.1 83.7l9.7-8.7C85.1 54.8 78.6 29 67.4 2.8c-6.2 14.1-11.1 28.6-14.8 42.1l9.7 10.6-11.7-2.8c-6.5 26.8-8.7 49.2-8.7 58.1 0 14.1 11.4 29.1 25.4 29.1s25.4-15 25.4-29.1c0-5.4-.7-15.3-2.7-28.3l-10.9 1.2z"/><path class="st5" d="M82.4 103l-.7-1.2-12.7 7.8 1.2-79.9h-1.3l-.8 46.5-12.2-8.9-.9 1.1 13 9.5.1-.1-.1 7.3-14.8-10.7-.9 1.2L68 86.9 66.8 160h1.4l.7-48.8z"/><path class="st0" d="M49.5 49.3c-3.1 1-6.1 16.5-3.7 18.7 3.5 3.2 3.8-10.5 7.2-8 3.5 2.6 11.3 2.2 12.5-1.2 1.3-3.3-12.8-10.5-16-9.5M68.5 0c-3.1 0-7 9.2-8.3 17-.5 2.8 3.8 1.7 3.8-1.2 0-2.4 3.8-.4 3.8 11.4 0 20.2 6.5 18.7 6.5 12.8 0-14.2 4.5-6.4 4.5 7.5 0 5.9 2.7 19.8 7.3 19.8 4.5 0 2.7-13.9-2.7-32.7C77.9 15.8 71.5 0 68.5 0M91 81.2c-2-2-10.6-1.5-11.3 1.2-1 3.9 3.8 1.5 6.1 3.9C89 89.5 88.2 97 90 99c2.2 2 4.4-14.4 1-17.8"/><path class="st6" d="M61 101c0 1.3-1.2 2.4-2.6 2.3-1.3 0-2.4-1.2-2.3-2.6 0-1.3 1.2-2.4 2.6-2.3s2.5 1.3 2.3 2.6"/><path class="st7" d="M79.9 118.5c0 1.3-1.2 2.4-2.6 2.3-1.3 0-2.4-1.2-2.3-2.6 0-1.3 1.2-2.4 2.6-2.3 1.3.2 2.4 1.3 2.3 2.6M63.5 36.2c0 1.3-1.2 2.4-2.6 2.3-1.3 0-2.4-1.2-2.3-2.6 0-1.3 1.2-2.4 2.6-2.3 1.3.2 2.4 1.3 2.3 2.6"/><path class="st3" d="M270.1 143.3c5.9-1.2 9.8-2.8 9.8-4.8 0-2.3-8.7-19.3-16.4-32.2 5-.7 8.7-2.1 8.7-3.7 0-2.8-17.1-34.3-19.9-34.3-3.6 0-21.1 31.4-19.8 35.5.5 1.3 3.3 2.1 7.5 2.7-7.8 12.9-16.2 30.1-15.1 33.6.5 1.6 4.7 2.9 10.5 3.7-8.3 14.5-16.5 30.7-16.5 33.1 0 4.7 16.9 7.6 33.4 7.6s32.1-1.9 33.1-5.6c1.3-3.7-6.6-20.8-15.3-35.6"/><path class="st5" d="M261.3 125.4l-.9-.8-7.4 7.5V90.9h-1.3v77.5l-8.4-8.3-.8.8 9.2 9.2v38.2h1.3v-74.4z"/><path class="st0" d="M252 68.3c-4 0-14.7 13.5-12.6 16.9 2.9 4.9 7.8-6.3 12.6-6.3 6.6 0 10.7 12.6 14.6 12.6 4.5 0-7.6-23.2-14.6-23.2"/><path class="st8" d="M389.3 109.5c6.2-1.1 10.4-2.9 10.4-5.2 0-2.5-9.2-20.4-17.3-34 5.3-.8 9.2-2.1 9.2-4 0-2.9-18.1-36.2-21-36.2-3.8 0-22.3 33.1-20.8 37.4.3 1.2 3.5 2.3 7.8 2.8-8.4 13.8-17.2 31.9-15.9 35.6.6 1.8 5 3.1 11 4-8.7 15.4-17.4 32.5-17.4 35 0 5.1 17.9 7.9 35.2 7.9 17.4 0 33.8-2 35-6 1.5-3.5-7-21.5-16.2-37.3z"/><path class="st9" d="M380.2 97.5l-.9-.9-7.7 7.8V61h-1.3v82.1l-9-9-.9.9 9.9 9.8v32h1.3v-70.6z"/><path class="st0" d="M370.9 26.8c-3.2 0-7.8 10-8.7 12.1-.9 2.1.7 4.5 4.9 2.1 2.8-1.7 6.8-1.2 6.8 2s3.2 6.7 5.2 5.3 2.2 6.4 6.3 6.4c4 0-9.2-27.9-14.5-27.9"/><path class="st10" d="M395.7 136.2c0 1.4-1.2 2.4-2.6 2.4s-2.4-1.2-2.4-2.6c0-1.4 1.2-2.4 2.6-2.4 1.4.1 2.4 1.3 2.4 2.6"/><path class="st6" d="M383.8 82.3c0 1.5-1.2 2.8-2.8 2.8s-2.8-1.2-2.8-2.8c0-1.5 1.2-2.8 2.8-2.8s2.8 1.2 2.8 2.8"/><path class="st7" d="M366.8 113.2c0 1.4-1.2 2.4-2.6 2.4s-2.4-1.2-2.4-2.6 1.2-2.4 2.6-2.4c1.3-.1 2.4 1.1 2.4 2.6M361.6 60.6c0 1.5-1.3 2.6-2.9 2.6-1.5 0-2.6-1.3-2.6-2.9s1.3-2.6 2.9-2.6c1.5.1 2.7 1.3 2.6 2.9"/><path class="st8" d="M182.7 220.8c-3.4 0-34.3 107.7-31.2 111.4s15.9 8.6 30.8 8.6 28-7.1 29.1-9.8c.9-2.9-23.4-110.2-28.7-110.2"/><path class="st11" d="M194.1 305.8l-11.3 11.4v-61.9h-1.4v42.5L170 286.5l-.8.9 12.2 12.3v6.6L170 295.1l-.9.9 12.3 12.4v47.7h1.4v-36.9l12.4-12.4zM184.3 216.1c-1.8 0-5.4 9.7-6.6 14.2-.6 2 2.8 1.3 2.8-1 0-1.9 2.8-.2 2.8 8.4 0 15 4.8 13.9 4.8 9.6 0-10.5 3.4-4.7 3.4 5.6 0 4.3 3.5 5.5 3.5 0 0-12.6-8.9-36.8-10.7-36.8"/><path class="st10" d="M177.9 275.5c0 1.3-1.1 2.3-2.4 2.3-1.3 0-2.3-1.1-2.3-2.4s1.1-2.3 2.4-2.3c1.4 0 2.4 1 2.3 2.4"/><path class="st6" d="M193.4 292.7c0 1.3-1.1 2.5-2.5 2.5-1.3 0-2.5-1.1-2.5-2.5s1.1-2.5 2.5-2.5c1.3 0 2.5 1.2 2.5 2.5"/><path class="st7" d="M173.6 324.3c0 1.3-1.1 2.3-2.4 2.3-1.3 0-2.3-1.1-2.3-2.4s1.1-2.3 2.4-2.3c1.4 0 2.3 1.1 2.3 2.4"/><path class="st5" d="M58.2 370.7c-7.6-1.4-12.7-3.5-12.7-6.4 0-3.1 11.2-24.9 21.3-41.8-6.5-.9-11.2-2.6-11.2-4.8 0-3.5 22.2-44.4 25.8-44.4 4.7 0 27.3 40.7 25.6 46-.5 1.5-4.4 2.8-9.6 3.4 10.2 16.9 21.2 39.2 19.5 43.8-.6 2.1-6 3.8-13.5 4.8 10.7 18.9 21.4 39.9 21.4 42.9 0 6.2-21.9 9.8-43.2 9.8-21.4 0-41.4-2.5-42.9-7.3-2-4.6 8.3-26.7 19.5-46"/><path class="st11" d="M69.5 355.9l1-1.1 9.5 9.6V311h1.6v100.7l11-11 1.1 1.2L81.6 414v33.2H80v-80.6zM83.6 272.2c6 0 19.4 26.3 17 29.6-3.3 4.5-6.9-15.9-12.3-15.9-3.7 0-1.1 12.6-6.8 12.6-3.1 0-3.9-8.4-6.4-5.8-5.4 5.7-9.6 14.6-13.7 14.6-6.5-.1 11.5-35.1 22.2-35.1"/><path class="st4" d="M345.3 296.7c5.9-1.2 9.9-2.8 9.9-4.8 0-2.4-8.7-19.3-16.4-32.1 5.1-.7 8.7-2.1 8.7-3.7 0-2.8-17.1-34.3-19.9-34.3-3.6 0-21.1 31.3-19.7 35.5.5 1.3 3.3 2.1 7.5 2.7-7.9 12.9-16.1 30.1-15.1 33.6.5 1.6 4.7 2.9 10.5 3.7-8.3 14.5-16.5 30.7-16.5 33.1 0 4.7 16.8 7.6 33.3 7.6s32.1-1.9 33.1-5.6c1.3-3.9-6.7-21.1-15.4-35.7"/><path class="st5" d="M336.5 278.7l-.9-.8-7.4 7.4v-41.2h-1.3v77.6l-8.4-8.4-.8.8 9.2 9.4v38.1h1.3v-74.4z"/><path class="st11" d="M327.2 221.6c-4 0-14.8 13.5-12.7 16.8 2.9 4.9 7.9-6.3 12.7-6.3 6.5 0 10.7 12.7 14.7 12.7 4.3 0-7.7-23.2-14.7-23.2"/><path class="st3" d="M460.6 390.2c-9.3 15.8-17.8 34.1-16.4 38 1.1 3.9 17.8 6 35.5 6s35.6-3.2 35.6-8.2c0-2.7-8.8-19.9-17.7-35.5 6.3-.9 10.7-2.2 11.2-3.9 1.1-3.8-7.7-22.2-16.1-36 4.6-.6 7.6-1.6 8-2.8 1.4-4.4-17.4-38-21.1-38-3 0-21.3 33.8-21.3 36.8 0 1.7 3.9 3.3 9.3 3.9-8.2 13.7-17.5 32-17.5 34.4.1 2.3 4.4 4.1 10.5 5.3"/><path class="st5" d="M478.9 380.1v79.7h1.4v-40.9l10-9.9-1-.8-9 8.9v-83h-1.4v44.2l-7.9-8.1-.9 1z"/><path class="st11" d="M480.2 310c-7.6 0-20.3 24.8-15.6 24.8 4.3 0 8.7-13.6 15.6-13.6 5.2 0 10.4 12 13.6 6.8 2.2-3.7-9.4-18-13.6-18"/><path class="st8" d="M257.1 428.2c-5.7 0-31.7 115.1-30.6 118.1 1.2 3 15.3 10.6 31.1 10.6s29.6-5.3 32.9-9.2c3.4-4.1-29.9-119.5-33.4-119.5"/><path class="st5" d="M243.7 520.4l13.2 13.3v39.5h1.5V522l13.3-13.2-1.1-1-12.2 12.1v-7.1l13.2-13.2-1-1-12.2 12.2v-45.6h-1.5v66.3l-12-12.2z"/><path class="st11" d="M255.3 423.2c-1.9 0-11.5 25.9-11.2 39.5 0 6 3.7 4.6 3.7 0 0-11 3.7-17.3 3.7-6.1 0 4.6 5.1 5.8 5.1-10.3 0-9.2 3-11 3-8.9 0 2.4 3.7 3.2 3 1.1-1.5-5-5.3-15.3-7.3-15.3"/><path class="st4" d="M548.5 558.7c-2.1 13.8-2.9 24.3-2.9 30 0 14.9 12.1 30.9 27 30.9s27-16 27-30.9c0-9.5-2.3-33.3-9.2-61.7l-12.5 3 10.3-11.3c-3.9-14.3-9.1-29.8-15.7-44.7-12 27.8-18.8 55.2-22.7 76.7l10.3 9.2-11.6-1.2z"/><path class="st5" d="M571 589.1l.6 51.9h1.6l-1.3-77.7 16.6-12-.9-1.3-15.7 11.5-.1-7.8.1.1 13.8-10.1-.9-1.2-13 9.5-.8-49.4h-1.4l1.3 84.9-13.6-8.4-.7 1.3z"/><path class="st11" d="M591.5 523.4c-3.4-1-18.3 6.6-17 10.1 1.3 3.6 9.5 4 13.3 1.3 3.6-2.7 3.9 11.8 7.7 8.4 2.5-2.3-.7-18.8-4-19.8M571.4 471c-3.2 0-10 16.8-15.9 36.8-5.7 19.9-7.7 34.7-2.9 34.7 4.9 0 7.8-14.8 7.8-21.1 0-14.7 4.8-23 4.8-7.9 0 6.2 6.9 7.8 6.9-13.6 0-12.5 4-14.7 4-12.1 0 3.1 4.5 4.3 4 1.3-1.3-8.4-5.5-18.1-8.7-18.1M547.5 557.3c-3.6 3.6-1.3 21.1 1 18.8 1.9-2.1 1-10 4.4-13.4 2.5-2.6 7.5 0 6.5-4.2-.6-2.8-9.9-3.3-11.9-1.2"/><path class="st6" d="M579.3 578.4c-.1-1.4 1-2.7 2.5-2.7 1.4-.1 2.7 1 2.7 2.5.1 1.4-1 2.7-2.5 2.7-1.4.1-2.7-1.1-2.7-2.5"/><path class="st7" d="M559.3 596.9c-.1-1.4 1-2.6 2.5-2.7 1.4-.1 2.7 1 2.7 2.5.1 1.4-1 2.7-2.5 2.7-1.4.1-2.7-1-2.7-2.5M576.7 509.5c-.1-1.4 1-2.6 2.5-2.7s2.7 1 2.7 2.5c.1 1.4-1 2.7-2.5 2.7-1.4.1-2.7-1.1-2.7-2.5"/><path class="st8" d="M1296.7 314.7c6.3-1.1 10.6-2.8 10.6-5.2 0-2.6-9.3-20.3-17.7-34.1 5.4-.7 9.3-2.1 9.3-3.8 0-2.8-18.4-36.1-21.5-36.1-3.9 0-22.9 33.2-21.4 37.5.5 1.2 3.7 2.3 8.1 2.7-8.5 13.8-17.6 31.8-16.2 35.7.6 1.7 5 3 11.3 3.8-9 15.5-17.8 32.5-17.8 35 0 5 18.3 8 36 8 17.8 0 34.5-2 35.9-6 1.3-3.6-7.3-21.7-16.6-37.5z"/><path class="st9" d="M1287.1 302.8l-.8-.8-7.9 7.6v-43.4h-1.3v82.1l-9.1-9.1-1 .9 10.1 9.8V382h1.3v-70.5z"/><path class="st0" d="M1277.8 232c-3.2 0-7.9 10-9 12.2-.9 2.1.7 4.4 5 2.1 2.8-1.6 7-1.2 7 2 0 3.3 3.3 6.8 5.3 5.3 2.1-1.5 2.2 6.4 6.4 6.4 4.4 0-9.3-28-14.7-28"/><path class="st10" d="M1303.1 341.4c0 1.5-1.4 2.5-2.6 2.5-1.5 0-2.5-1.2-2.5-2.6s1.4-2.5 2.6-2.5c1.5 0 2.5 1.3 2.5 2.6"/><path class="st6" d="M1291 287.5c0 1.6-1.4 2.7-2.8 2.7-1.6 0-2.8-1.2-2.8-2.7 0-1.6 1.4-2.7 2.8-2.7 1.6-.1 2.8 1.1 2.8 2.7"/><path class="st7" d="M1273.5 318.3c0 1.5-1.4 2.5-2.6 2.5-1.5 0-2.5-1.2-2.5-2.6 0-1.5 1.4-2.5 2.6-2.5 1.5.2 2.5 1.3 2.5 2.6M1268.3 265.7c0 1.6-1.4 2.7-3 2.6-1.6 0-2.8-1.2-2.6-2.8 0-1.6 1.4-2.7 3-2.6 1.4.1 2.6 1.3 2.6 2.8"/><path class="st5" d="M1450.3 126.7c-3.6 0-37.1 116.3-33.7 120.4 3.4 4 17.3 9.2 33.2 9.2 16 0 30.2-7.7 31.3-10.6 1.2-3-25.1-119-30.8-119"/><path class="st9" d="M1462.6 218.5l-12.2 12.4v-66.8h-1.5v45.8l-12.3-12.2-1 1 13.3 13.4v7l-12.3-12.2-1.1 1.2 13.4 13.2v51.6h1.5v-39.8l13.3-13.5z"/><path class="st0" d="M1449.5 122.9c2.9 0 6.6 8.6 7.9 16.1.5 2.6-3.6 1.7-3.6-1.2 0-2.4-3.5-.4-3.5 10.7 0 19.1-6.1 17.6-6.1 12.2 0-13.3-4.3-6-4.3 7.1 0 9.5-4.6 18.7-8.9 18.7s-.6-13.2 4.6-30.8c5.1-17.8 11.1-32.8 13.9-32.8"/><path class="st4" d="M1563.9 83.7l9.7-8.7c-3.7-20.2-10.2-45.9-21.4-72.2-6.3 14.1-11.1 28.6-14.8 42.1l9.7 10.6-11.8-2.9c-6.5 26.8-8.7 49.2-8.7 58.2 0 14.1 11.3 29 25.4 29s25.4-15 25.4-29c0-5.4-.7-15.4-2.8-28.2l-10.7 1.1z"/><path class="st5" d="M1567.1 103.1l-.7-1.4-12.7 7.9 1.3-79.9h-1.4l-.8 46.6-12.2-9-.8 1 12.9 9.6.1-.1-.1 7.4-14.8-10.8-.8 1.1 15.6 11.4-1.2 73.1h1.4l.7-48.9z"/><path class="st0" d="M1534.3 49.3c-3.1 1-6.2 16.5-3.7 18.7 3.5 3.2 3.7-10.5 7.3-8 3.5 2.6 11.2 2.2 12.4-1.2 1.2-3.3-13-10.5-16-9.5M1553.2 0c-3 0-6.9 9.1-8.3 16.9-.6 2.8 3.8 1.8 3.8-1.2 0-2.5 3.7-.3 3.7 11.3 0 20.2 6.5 18.7 6.5 12.9 0-14.1 4.6-6.4 4.6 7.5 0 5.8 2.7 19.7 7.3 19.8 4.6 0 2.8-14-2.7-32.7S1556.2 0 1553.2 0M1575.7 81.2c-2-2-10.6-1.5-11.2 1.2-.9 3.9 3.7 1.6 6.1 3.9 3.2 3.2 2.2 10.6 4.3 12.7 2 2.1 4.3-14.4.8-17.8"/><path class="st3" d="M1738.2 80.3c6.3-1.2 10.6-3 10.6-5.2 0-2.6-9.3-20.6-17.6-34.5 5.4-.8 9.3-2.2 9.3-3.9 0-3-18.4-36.7-21.3-36.7-3.8 0-22.6 33.6-21.2 38 .4 1.3 3.6 2.4 8.1 2.9-8.5 14-17.5 32.5-16.2 36.2.6 1.8 4.9 3.1 11.2 3.9-9 15.6-17.7 32.9-17.7 35.5 0 5 18.1 8.2 35.7 8.2 17.7 0 34.3-2 35.5-6 1.4-4.1-7.2-22.5-16.4-38.4"/><path class="st5" d="M1728.8 61.3l-1-.9-8 7.9V24.2h-1.3v83.1l-9.1-8.9-.8.9 9.9 9.8V150h1.3V70.2z"/><path class="st0" d="M1718.8 0c-4.3 0-15.8 14.5-13.6 18.1 3.1 5.3 8.4-6.8 13.6-6.8 7.1 0 11.4 13.6 15.7 13.6 4.7-.1-8.2-24.9-15.7-24.9"/><path class="st6" d="M1709.6 62.3c0 2.1-1.7 3.8-3.8 3.8-2.1 0-3.8-1.7-3.8-3.8 0-2.1 1.7-3.8 3.8-3.8s3.8 1.7 3.8 3.8M1747.9 95.6c-.1 1.9-1.7 3.5-3.6 3.4s-3.5-1.7-3.4-3.6 1.7-3.5 3.7-3.4c1.9 0 3.4 1.7 3.3 3.6"/><path class="st7" d="M1705.6 111.9c-.1 1.9-1.7 3.5-3.7 3.4-1.9-.1-3.5-1.7-3.4-3.7.1-1.9 1.7-3.5 3.6-3.4 2 .1 3.5 1.7 3.5 3.7M1732.2 31.8c-.1 1.9-1.7 3.5-3.7 3.4-1.9-.1-3.5-1.7-3.4-3.6s1.7-3.5 3.6-3.4c2.1 0 3.6 1.7 3.5 3.6"/><path class="st8" d="M1862.9 118.5c5.4-1 9-2.5 9-4.4 0-2.2-7.9-17.7-15.1-29.5 4.5-.7 7.9-1.8 7.9-3.4 0-2.5-15.7-31.3-18.2-31.3-3.3 0-19.3 28.7-18.1 32.4.3 1.1 3 2 6.8 2.4-7.3 11.9-15 27.6-13.8 30.9.4 1.5 4.2 2.6 9.5 3.4-7.6 13.3-15.2 28.2-15.2 30.3 0 4.3 15.5 6.9 30.4 6.9 15.2 0 29.3-1.7 30.3-5.2 1.8-3.2-5.6-18.8-13.5-32.5z"/><path class="st9" d="M1854.9 108.1l-.8-.7-6.6 6.8V76.5h-1.1v71.1l-7.8-7.8-.7.7 8.5 8.6v27.7h1.1v-61.1z"/><path class="st0" d="M1847 46.8c-2.8 0-6.7 8.8-7.6 10.5-.8 1.8.7 3.9 4.1 1.8 2.4-1.4 6-1.1 6 1.7s2.8 5.9 4.4 4.7c1.7-1.2 1.8 5.5 5.4 5.5s-7.8-24.2-12.3-24.2"/><path class="st5" d="M1629.4 95.9c-5.3 0-30 108.9-29 111.8 1.1 2.8 14.4 10 29.5 10 15 0 28-5 31.2-8.7 3.1-3.8-28.3-113.1-31.7-113.1"/><path class="st11" d="M1616.7 183.2l12.5 12.6v37.4h1.5v-48.4l12.5-12.5-1-1-11.5 11.4V176l12.4-12.5-.9-.9-11.5 11.5V131h-1.5v62.8l-11.4-11.6z"/><path class="st0" d="M1627.8 91.2c-1.8 0-10.9 24.5-10.7 37.4 0 5.6 3.5 4.4 3.5 0 0-10.4 3.4-16.4 3.4-5.7 0 4.4 4.9 5.5 4.9-9.7 0-8.7 2.8-10.4 2.8-8.5 0 2.3 3.4 3 2.8 1-1.2-4.7-4.9-14.5-6.7-14.5"/><path class="st3" d="M1349.7 426.1c-1.9 11.3-2.5 20-2.5 24.7 0 12.3 9.9 25.4 22.3 25.4s22.3-13 22.3-25.4c0-7.8-2-27.5-7.6-50.9l-10.3 2.5 8.5-9.3c-3.2-11.9-7.5-24.5-12.9-36.9-9.8 22.9-15.5 45.5-18.7 63.1l8.5 7.6-9.6-.8z"/><path class="st5" d="M1368.3 451.1l.5 42.8h1.2l-1-63.9 13.7-10-.7-1-13 9.4-.1-6.5.1.1 11.3-8.3-.7-.9-10.7 7.9-.6-40.8h-1.3l1.2 69.9-11.2-6.9-.6 1.2z"/><path class="st11" d="M1385.1 397c-2.6-.9-15.1 5.4-14 8.3 1.1 3 7.8 3.3 10.9 1.1 3.1-2.3 3.3 9.8 6.4 7 2.1-2-.5-15.5-3.3-16.4M1368.5 353.9c-2.6 0-8.2 13.8-13 30.2s-6.4 28.6-2.4 28.6c4-.1 6.4-12.3 6.4-17.4 0-12.2 4-18.9 4-6.6 0 5.1 5.7 6.4 5.7-11.3 0-10.2 3.2-12.1 3.2-9.9 0 2.6 3.8 3.5 3.3 1.1-1.1-6.8-4.5-14.7-7.2-14.7M1348.8 425c-3 2.9-1 17.4.8 15.6s.9-8.2 3.7-11.1c2.1-2.1 6.1 0 5.3-3.4-.4-2.4-8-2.9-9.8-1.1"/><path class="st4" d="M1358.3 559.3c-3.7 0-36.8 115.5-33.4 119.4s17.1 9.2 32.9 9.2 30.1-7.6 31.1-10.6c1-3.1-24.9-118-30.6-118"/><path class="st0" d="M1370.5 650.4l-12.1 12.2v-66.3h-1.6v45.6l-12.2-12.2-.8 1 13 13.2v7.1l-12.2-12.1-1 1 13.2 13.2v51.2h1.6v-39.5l13.1-13.3z"/><path class="st11" d="M1359.9 554.3c-1.9 0-5.8 10.4-7 15.3-.7 2.2 3 1.4 3-1.1 0-2 3-.3 3 8.9 0 16 5.1 14.9 5.1 10.3 0-11.2 3.7-5 3.7 6.1 0 4.6 3.7 6 3.7 0 0-13.6-9.6-39.5-11.5-39.5"/><path class="st8" d="M1470.1 461.7c1.4 4.3 19.3 6.4 38.3 6.4 18.9 0 38.4-3.1 38.4-8.5 0-2.8-9.4-20.9-19-37.4 6.7-.9 11.4-2.2 12.1-4.1 1.4-4.1-8.3-23.3-17.3-38 4.7-.4 8.1-1.6 8.7-2.9 1.6-4.6-18.6-40-22.8-40-3.3 0-23 35.5-23 38.6 0 1.8 4.2 3.3 10 4.1-8.9 14.7-18.9 33.6-18.9 36.3 0 2.5 4.6 4.3 11.3 5.5-9.9 16.7-19.1 36-17.8 40z"/><path class="st9" d="M1507.4 418.3v75.1h1.4v-34.2l10.8-10.5-1.1-.9-9.7 9.7v-87.6h-1.4v46.3l-8.4-8.2-.9.9z"/><path class="st0" d="M1508 333.4c-5.8 0-20.3 29.9-15.7 29.8 4.5 0 4.6-8.4 6.8-6.8 2.1 1.6 5.6-2.1 5.6-5.6 0-3.4 4.5-3.8 7.5-2.1 4.6 2.5 6.3 0 5.4-2.2-1.2-2.5-6.2-13.1-9.6-13.1"/><path class="st10" d="M1481 450.1c0-1.4 1-2.8 2.6-2.8 1.3 0 2.8 1.2 2.8 2.6s-1 2.8-2.6 2.8c-1.3 0-2.8-1-2.8-2.6"/><path class="st6" d="M1494 392.5c0-1.7 1.2-2.9 3-2.9 1.6 0 3 1.2 3 2.9 0 1.6-1.3 2.9-3 2.9-1.6 0-3-1.1-3-2.9"/><path class="st7" d="M1512.6 425.5c0-1.4 1-2.6 2.6-2.8 1.3 0 2.8 1 2.8 2.6 0 1.4-1 2.8-2.6 2.8-1.3 0-2.8-1.1-2.8-2.6M1518.1 369.3c0-1.6 1.3-2.9 2.8-3 1.7-.1 3.1 1 3.1 2.8.3 1.7-1 3-2.8 3-1.6.1-3.1-1.1-3.1-2.8"/><path class="st4" d="M1588.3 470.5c-5.8 0-32 115.9-30.8 119 1.1 2.9 15.4 10.6 31.3 10.6s29.9-5.3 33.2-9.2c3.4-4.1-30.1-120.4-33.7-120.4"/><path class="st5" d="M1574.9 563.4l13.3 13.5v39.8h1.4v-51.6l13.5-13.2-1.1-1.2-12.4 12.2v-7l13.3-13.4-.9-1-12.4 12.2v-45.8h-1.4v66.8l-12.3-12.4z"/><path class="st11" d="M1589 466.7c2.9 0 8.9 15 13.9 32.8 5.2 17.6 8.9 30.8 4.6 30.8s-8.9-9.2-8.9-18.7c0-13.1-4.3-20.4-4.3-7.1 0 5.4-6.1 6.8-6.1-12.2 0-11-3.5-13.1-3.5-10.7 0 2.9-4.1 3.8-3.6 1.2 1.3-7.5 5-16.1 7.9-16.1"/><path class="st4" d="M1770.5 281.4l9.1-8.1c-3.4-18.8-9.6-43-20-67.6-5.9 13.2-10.3 26.8-13.9 39.4l9.1 9.9-11-2.7c-6.1 25.1-8.1 46-8.1 54.4 0 13.2 10.6 27.1 23.8 27.1s23.8-14 23.8-27.1c0-5-.7-14.3-2.6-26.4l-10.2 1.1z"/><path class="st5" d="M1773.5 299.5l-.6-1.1-11.9 7.2 1.1-74.7h-1.2l-.8 43.6-11.4-8.4-.8.9 12.1 8.9h.1l-.1 6.9-13.8-10-.7 1 14.5 10.7-1.1 68.3h1.3l.7-45.7z"/><path class="st11" d="M1743.9 250.1c-2.8.9-5.6 14.8-3.2 16.8 3.2 2.9 3.3-9.4 6.4-7.1s10 2 11.1-1.1c1.3-3-11.4-9.5-14.3-8.6M1760.1 202.8c-2.8 0-6.2 8.2-7.4 15.2-.4 2.6 3.4 1.6 3.4-1.1 0-2.2 3.3-.3 3.3 10.1 0 18 5.8 16.8 5.8 11.6 0-12.7 4.1-5.7 4.1 6.8 0 5.2 2.4 17.7 6.6 17.8 4.1 0 2.4-12.6-2.4-29.2-4.8-17-10.5-31.2-13.4-31.2M1780.6 280.2c-1.8-1.8-9.4-1.3-10.1 1.1-.9 3.4 3.3 1.3 5.4 3.4 2.9 2.9 2 9.6 3.8 11.3 1.9 2 4-12.6.9-15.8"/><path class="st6" d="M1752 307.1c0 1.2-1 2.2-2.2 2.2s-2.2-1-2.2-2.2 1-2.2 2.2-2.2 2.2 1.1 2.2 2.2M1773.5 269.9c-.1 1.1-1 2-2.1 2-1.1-.1-2-1-2-2.1.1-1.1 1-2 2.1-2 1.2.1 2 1 2 2.1"/><path class="st7" d="M1749.7 284.6c-.1 1.1-1 2-2.1 2-1.1-.1-2-1-2-2.1.1-1.1 1-2 2.1-2 1.2.1 2.1 1 2 2.1M1753.2 240.1c-.1 1.1-1 2-2.1 2-1.1-.1-2-1-2-2.1.1-1.1 1-2 2.1-2 1.2.1 2 1 2 2.1M1770.4 311.7c-.1 1.1-1 2-2.1 2-1.1-.1-2-1-2-2.1.1-1.1 1-2 2.1-2 1.2.1 2.1 1.1 2 2.1"/><path class="st3" d="M1792.4 412.2c-3.6 0-36.8 115.4-33.5 119.4s17.1 9.2 32.9 9.2c15.9 0 30-7.6 31.2-10.5 1-3.1-25-118.1-30.6-118.1"/><path class="st5" d="M1804.5 503.4l-12 12.1v-66.2h-1.6v45.5l-12.1-12.2-.9 1 13 13.2v7.1l-12.1-12.1-1.1 1 13.2 13.2v51.2h1.6v-39.5l13.2-13.3z"/><path class="st0" d="M1794 407.2c-1.9 0-5.8 10.4-7.1 15.3-.6 2.2 2.9 1.4 2.9-1 0-2.1 2.9-.3 2.9 9 0 16 5.1 14.9 5.1 10.3 0-11.3 3.6-5 3.6 6 0 4.6 3.7 5.9 3.7 0 .5-13.7-9.2-39.6-11.1-39.6"/><path class="st8" d="M1868.6 311.3c-5.7 0-31.7 115.1-30.6 118.1 1.2 3 15.3 10.6 31.1 10.6s29.6-5.3 32.9-9.2c3.4-4-29.8-119.5-33.4-119.5"/><path class="st5" d="M1855.3 403.5l13.1 13.4v39.4h1.7v-51l13.1-13.3-.9-1.1-12.2 12.1v-7.1l13-13.1-.8-1.1-12.2 12.2v-45.5h-1.7v66.3l-12-12.1z"/><path class="st11" d="M1867 306.3c-1.9 0-11.5 25.9-11.2 39.5 0 6 3.7 4.6 3.7 0 0-11 3.7-17.3 3.7-6.1 0 4.6 5.1 5.8 5.1-10.3 0-9.2 3-11 3-8.9 0 2.4 3.7 3.2 3 1.1-1.7-4.9-5.4-15.3-7.3-15.3"/><path class="st5" d="M1783.6 668.6c7.3-1.5 12.3-3.5 12.3-6.1 0-3-10.8-24.1-20.5-40.3 6.3-.9 10.8-2.7 10.8-4.7 0-3.5-21.4-42.8-24.9-42.8-4.6 0-26.4 39.2-24.8 44.3.5 1.6 4 2.7 9.4 3.4-9.8 16.2-20.2 37.6-18.8 42 .5 2 5.8 3.6 13.2 4.7-10.4 18.2-20.6 38.4-20.6 41.5 0 5.8 21.1 9.6 41.7 9.6s40.1-2.3 41.5-7c1.6-4.9-8.4-26.1-19.3-44.6"/><path class="st0" d="M1772.7 646.1l-1.2-.9-9.2 9.3v-51.4h-1.6v96.8l-10.6-10.4-1 1.1 11.6 11.5v47.7h1.6v-93zM1761 574.8c-5 0-18.4 16.8-15.7 21.1 3.6 6.2 9.8-7.9 15.7-7.9 8.2 0 13.3 15.8 18.3 15.8 5.5-.1-9.6-29-18.3-29"/></svg>