<svg id="Layer_1" xmlns="http://www.w3.org/2000/svg" viewBox="0 0 1920 982.8" preserveAspectRatio="xMaxYMax"><style>.st0{fill:#4b7230}.st1{fill:#89b636}.st2{fill:#FFF}.st3{fill:#273654}.st4{fill:#e8a3a8}.st5{fill:#518360}.st6{fill:#f34b51}.st7{fill:#7a5c48}.st8{fill:#b0b53f}.st9{fill:#b5846b}.st10{fill:#1a263a}.st11{fill:#d5e6ef}.st12{fill:#c39276}.st13{fill:#a74e25}.st14{fill:#d9d9d9}.st15{fill:#396344}.st16{fill:#b5c4cb}.st17{fill:#794765}.st18{fill:#d69ea5}.st19{fill:#682e17}.st20{fill:#e8bbaa}.st21{fill:#fbbac2}.st22{fill:#c6dbf6}.st23{fill:#d8ac9e}.st24{fill:#a5b6db}</style><path class="st0" d="M1407.1 709.6c-151.6-60.7-401.1-61.8-565.8-168.2C692 445 615.1 439.6 404.7 419.9c-141.3-13.2-290.6-13-404.7-83.1v642.3h1730c-26.9-110.6-190.1-216.3-322.9-269.5z"/><path class="st1" d="M1693.9 943.7c-112.2-39.7-119.5-77.4-215.4-117.6-168.6-70.6-374.4-78.9-536.5-111.1-198.7-39.5-205.3-133.1-480.6-177.1C282 509.4 136.2 522.7 0 498.7v484.1h1920c-79.8-6.1-163.3-16.8-226.1-39.1z"/><path class="st2" d="M546 649l-2.2-.6c2.8-10.6 3.5-22 1.6-32.8-1.8-10.8-5.9-21.4-12-30.3l2-1.2c6.3 9.4 10.6 20.2 12.4 31.3 1.8 10.8 1.2 22.6-1.8 33.6z"/><path class="st3" d="M540.9 584.3c0-3.7-2.8-6.7-6.7-6.7s-6.7 2.8-6.7 6.7 2.8 6.7 6.7 6.7 6.7-2.8 6.7-6.7z"/><path class="st2" d="M576.3 648.6h-2.4c0-12.2.8-18.5 6.3-26.3 4.7-6.7 11.6-9.2 14.2-10.2l.8 2.2c-2.6.8-8.8 3.3-13 9.4-5.1 7.2-5.9 13.1-5.9 24.9z"/><path class="st0" d="M601.4 613.4c0-3.7-2.8-6.7-6.7-6.7-3.7 0-6.7 2.8-6.7 6.7s2.8 6.7 6.7 6.7c3.6-.2 6.7-3 6.7-6.7z"/><path class="st2" d="M563.3 648.8h-2.4c.4-7.5.4-15.3 0-23-.4-9.4-1.6-18.7-3.7-27.9l2.4-.4c1.8 9.4 3.1 18.7 3.7 28.3.6 7.3.6 15.3 0 23z"/><path class="st3" d="M565.1 597.5c0-3.7-2.8-6.7-6.7-6.7-3.7 0-6.7 2.8-6.7 6.7s2.8 6.7 6.7 6.7 6.7-3 6.7-6.7z"/><circle class="st2" cx="556.6" cy="478.8" r="2.8"/><circle class="st2" cx="556.6" cy="501.6" r="2.8"/><path class="st2" d="M579.4 481.6c-1.6 0-2.8-1.2-2.8-2.8 0-1.6 1.2-2.8 2.8-2.8s2.8 1.2 2.8 2.8c.2 1.6-1.1 2.8-2.8 2.8zm0 23c-1.6 0-2.8-1.2-2.8-2.8s1.2-2.8 2.8-2.8 2.8 1.2 2.8 2.8-1.1 2.8-2.8 2.8zm0 22.7c-1.6 0-2.8-1.2-2.8-2.8s1.2-2.8 2.8-2.8 2.8 1.2 2.8 2.8-1.1 2.8-2.8 2.8z"/><circle class="st2" cx="602.4" cy="478.8" r="2.8"/><circle class="st2" cx="602.4" cy="501.6" r="2.8"/><circle class="st2" cx="533.8" cy="501.6" r="2.8"/><path class="st2" d="M510.9 504.6c1.6 0 2.8-1.2 2.8-2.8s-1.2-2.8-2.8-2.8c-1.6 0-2.8 1.2-2.8 2.8s1.2 2.8 2.8 2.8zm91.5 22.7c-1.6 0-2.8-1.2-2.8-2.8s1.2-2.8 2.8-2.8 2.8 1.2 2.8 2.8-1.2 2.8-2.8 2.8zm22.8-45.7c-1.6 0-2.8-1.2-2.8-2.8 0-1.6 1.2-2.8 2.8-2.8s2.8 1.2 2.8 2.8-1.2 2.8-2.8 2.8zm0 23c-1.6 0-2.8-1.2-2.8-2.8s1.2-2.8 2.8-2.8 2.8 1.2 2.8 2.8-1.2 2.8-2.8 2.8zm0 22.7c-1.6 0-2.8-1.2-2.8-2.8s1.2-2.8 2.8-2.8 2.8 1.2 2.8 2.8-1.2 2.8-2.8 2.8zm22.8-45.7c-1.6 0-2.8-1.2-2.8-2.8 0-1.6 1.2-2.8 2.8-2.8s2.8 1.2 2.8 2.8c.2 1.6-1.2 2.8-2.8 2.8zm0 23c-1.6 0-2.8-1.2-2.8-2.8s1.2-2.8 2.8-2.8 2.8 1.2 2.8 2.8-1.2 2.8-2.8 2.8zm0 22.7c-1.6 0-2.8-1.2-2.8-2.8s1.2-2.8 2.8-2.8 2.8 1.2 2.8 2.8-1.2 2.8-2.8 2.8zm0 22.9c-1.6 0-2.8-1.2-2.8-2.8s1.2-2.8 2.8-2.8 2.8 1.2 2.8 2.8c.2 1.5-1.2 2.8-2.8 2.8zm45.8-22.9c1.6 0 2.8-1.2 2.8-2.8s-1.2-2.8-2.8-2.8-2.8 1.2-2.8 2.8 1.1 2.8 2.8 2.8zm0 39.9c1.6 0 2.8 1.2 2.8 2.8s-1.2 2.8-2.8 2.8-2.8-1.2-2.8-2.8c-.2-1.4 1.1-2.8 2.8-2.8zm0-17c1.6 0 2.8-1.2 2.8-2.8s-1.2-2.8-2.8-2.8-2.8 1.2-2.8 2.8c-.2 1.5 1.1 2.8 2.8 2.8z"/><circle class="st2" cx="671" cy="501.6" r="2.8"/><path class="st2" d="M671 527.3c-1.6 0-2.8-1.2-2.8-2.8s1.2-2.8 2.8-2.8 2.8 1.2 2.8 2.8-1.4 2.8-2.8 2.8z"/><circle class="st2" cx="671" cy="547.2" r="2.8"/><circle class="st2" cx="671" cy="570.2" r="2.8"/><circle class="st2" cx="716.6" cy="570.2" r="2.8"/><path class="st1" d="M230.3 209c5.1 71.6-43.8 98.2-98.2 98.2S34 281.5 34 209c0-69.9 43.8-98.2 98.2-98.2s93.7 32.7 98.1 98.2z"/><path class="st1" d="M228.7 331.9c1.4 20.8-14.4 32.2-32.2 32.2s-34-14.4-32.2-32.2c2.5-22.7 14.4-32.2 32.2-32.2 18.1.1 30.8 14.4 32.2 32.2z"/><path class="st3" d="M197.5 333.3l-1.6-2.8-61.6 39.4V245.7H131V435h3.2v-61.1l63.3-40.6zM115.2 173.2c-1 0-1.8-.7-2-1.6-.9-4.1-5.3-8.3-12-8.3s-11.1 4.2-12 8.3c-.2 1.1-1.4 1.8-2.5 1.6s-1.8-1.4-1.6-2.5c1.3-5.7 7.2-11.6 16-11.6 8.9 0 14.8 5.8 16 11.6.2 1.1-.5 2.2-1.6 2.5 0-.1-.2 0-.3 0zM177.5 173.2c-1 0-1.8-.7-2-1.6-.9-4.1-5.3-8.3-12-8.3s-11.1 4.2-12 8.3c-.2 1.1-1.4 1.8-2.5 1.6s-1.8-1.4-1.6-2.5c1.3-5.7 7.2-11.6 16-11.6 8.9 0 14.8 5.8 16 11.6.2 1.1-.5 2.2-1.6 2.5 0-.1-.1 0-.3 0z"/><ellipse class="st4" cx="176.4" cy="189.3" rx="10.8" ry="5.9"/><ellipse class="st4" cx="88.2" cy="189.3" rx="10.8" ry="5.9"/><path class="st3" d="M151.5 205.7c2.4 0 4.3 2.2 3.8 4.6-2.1 10.8-11.6 18.9-23 18.9s-20.9-8.1-23-18.9c-.5-2.4 1.4-4.6 3.8-4.6h38.4z"/><path class="st4" d="M144.9 225.5c-3.6 2.3-8 3.7-12.6 3.7s-9-1.3-12.6-3.7c1.8-4.6 6.7-7.9 12.6-7.9 5.9 0 10.9 3.3 12.6 7.9z"/><path class="st5" d="M221 606.6c54.5 0 98.2 28.1 98.2 98.2 0 72.4-44.1 98.2-98.2 98.2-54.5 0-103.5-26.7-98.2-98.2 4-65.4 43.7-98.2 98.2-98.2zM156.7 795.8c17.6 0 29.7 9.3 32.3 32.3 1.9 17.6-14.6 32.3-32.3 32.3S123 849 124.4 828.1c1.2-17.7 14-32.3 32.3-32.3z"/><path class="st3" d="M218.9 770.3v95.6l-61.7-39.5-1.9 2.8 63.6 40.6v61.7h3.5V770.3h-3.5z"/><circle class="st2" cx="197.7" cy="684.6" r="18.9"/><path class="st3" d="M207.1 700.9c2.1-2.6 3.4-6 3.4-9.8 0-8-5.8-14.6-12.9-14.6-7.1 0-12.9 6.5-12.9 14.6 0 3.8 1.3 7.2 3.4 9.8 2.8 1.6 6 2.6 9.4 2.6s6.8-.9 9.6-2.6z"/><circle class="st2" cx="248" cy="684.6" r="18.9"/><path class="st3" d="M257.4 700.9c2.1-2.6 3.4-6 3.4-9.8 0-8-5.8-14.6-12.9-14.6-7.1 0-12.9 6.5-12.9 14.6 0 3.8 1.3 7.2 3.4 9.8 2.8 1.6 6 2.6 9.4 2.6 3.6 0 6.8-.9 9.6-2.6z"/><ellipse class="st4" cx="174.4" cy="711.9" rx="8.8" ry="5.1"/><ellipse class="st4" cx="267.2" cy="711.9" rx="8.8" ry="5.1"/><circle class="st2" cx="192" cy="680.9" r="3"/><circle class="st2" cx="242.1" cy="680.9" r="3"/><path class="st3" d="M243.4 720.7c.5 0 .9.2 1.3.5.9.7 1.1 2.1.3 3-.4.5-9.7 11.9-23 11.9s-22.7-11.5-23.1-11.9c-.7-.9-.6-2.2.3-3 .9-.7 2.2-.6 3 .3.1.1 8.6 10.4 19.8 10.4 11.3 0 19.6-10.3 19.7-10.4.5-.6 1.1-.8 1.7-.8z"/><path class="st6" d="M144.9 36h-34.2c-4.3 0-7.8 3.5-7.8 7.8v20.7c0 4.3 3.5 7.8 7.8 7.8h9.3c.6 0 1.1.3 1.4.8l5.5 9.9c.4.6 1.3.6 1.6 0l5.5-9.9c.3-.5.8-.8 1.4-.8h9.3c4.3 0 7.8-3.5 7.8-7.8V43.9c.2-4.4-3.3-7.9-7.6-7.9z"/><path class="st2" d="M137.5 45.9c-3.4-2-7.7-.9-9.7 2.5-2-3.4-6.3-4.5-9.7-2.5-3.4 2-4.5 6.3-2.5 9.7 1.7 2.9 8.3 9.2 12.2 9.6 3.9-.4 10.4-6.7 12.2-9.6 2-3.4.9-7.8-2.5-9.7z"/><path class="st3" d="M502.6 693.3c-7.2 0-73.4 230.4-66.8 238.3 6.6 7.9 34.1 18.4 65.8 18.4s60-15.1 62-21.1c2.1-6.1-49.7-235.6-61-235.6z"/><path class="st5" d="M529.5 877.3l-2.3-2.1-24.2 24.5V767.3h-3.1v90.6l-24.2-24-2.1 1.9 26.3 26.3v14.5l-24.2-24.4-2.3 2.1 26.5 26.5V983h3.1v-79l26.5-26.7z"/><path class="st6" d="M519.1 633.9h-34.2c-4.3 0-7.8 3.5-7.8 7.8v20.7c0 4.3 3.5 7.8 7.8 7.8h9.3c.6 0 1.1.3 1.4.8l5.5 9.9c.4.6 1.3.6 1.6 0l5.5-9.9c.3-.5.8-.8 1.4-.8h9.3c4.3 0 7.8-3.5 7.8-7.8v-20.7c.2-4.3-3.3-7.8-7.6-7.8z"/><path class="st2" d="M511.7 643.7c-3.4-2-7.7-.9-9.7 2.5-2-3.4-6.3-4.5-9.7-2.5-3.4 2-4.5 6.3-2.5 9.7 1.7 2.9 8.3 9.2 12.2 9.6 3.9-.4 10.4-6.7 12.2-9.6 2-3.3.9-7.7-2.5-9.7z"/><path class="st6" d="M1238.7 251.5h-34.2c-4.3 0-7.8 3.5-7.8 7.8V280c0 4.3 3.5 7.8 7.8 7.8h9.3c.6 0 1.1.3 1.4.8l5.5 9.9c.4.6 1.3.6 1.6 0l5.5-9.9c.3-.5.8-.8 1.4-.8h9.3c4.3 0 7.8-3.5 7.8-7.8v-20.7c.3-4.3-3.2-7.8-7.6-7.8z"/><path class="st2" d="M1231.4 261.3c-3.4-2-7.7-.9-9.7 2.5-2-3.4-6.3-4.5-9.7-2.5-3.4 2-4.5 6.3-2.5 9.7 1.7 2.9 8.3 9.2 12.2 9.6 3.9-.4 10.4-6.7 12.2-9.6 1.9-3.3.8-7.7-2.5-9.7z"/><path class="st0" d="M1247.3 487.7l21.2-19.1c-8-43.8-22.4-100.1-46.5-157.3-13.6 30.8-24.3 62.4-32.1 91.8l21.2 23-25.6-6.3c-14.2 58.2-19.1 107.3-19.1 126.5 0 30.8 24.7 63.5 55.3 63.5s55.1-32.5 55.1-63.3c0-11.7-1.3-33.5-6.1-61.6l-23.4 2.8z"/><path class="st3" d="M1252.1 543.3l-1.7-2.7-27.7 17 2.7-173.9h-3.1l-1.7 101.4-26.6-19.5-1.7 2.3 28.1 20.5.2-.2-.2 16.3-32.1-23.5-1.9 2.3 33.9 24.9-2.5 159.2h3.1l1.7-106.4 29.5-17.7z"/><path class="st2" d="M1352.8 827c1.8-10.9 5.9-21.3 12.1-30.4l2 1.2c-5.9 8.7-9.9 19-11.7 29.5-1.8 10.5-1.2 21.5 1.6 31.8l-2.2.6c-3-10.8-3.6-22.2-1.8-32.7z"/><path class="st3" d="M1366 803.3c3.8 0 6.5-2.8 6.5-6.5s-2.8-6.5-6.5-6.5-6.5 3-6.5 6.5c0 3.7 2.8 6.5 6.5 6.5z"/><path class="st2" d="M1319.4 835.1c-4.2-5.9-10.1-8.3-12.7-9.1l.8-2.2c2.6 1 9.3 3.4 13.8 9.9 5.3 7.5 6.1 13.6 6.1 25.5h-2.4c.1-11.4-.7-17.2-5.6-24.1z"/><path class="st0" d="M1307.3 831.5c3.8 0 6.5-2.8 6.5-6.5 0-3.8-3-6.5-6.5-6.5-3.8 0-6.5 3-6.5 6.5s2.9 6.3 6.5 6.5z"/><path class="st2" d="M1337.7 837.1c.6-9.3 1.8-18.4 3.6-27.5l2.4.4c-2 8.9-3.2 18-3.6 27.1-.4 7.5-.4 15 0 22.3h-2.4c-.6-7.5-.6-15.2 0-22.3z"/><path class="st3" d="M1342.5 816.1c3.8 0 6.5-2.8 6.5-6.5 0-3.8-3-6.5-6.5-6.5-3.8 0-6.5 3-6.5 6.5s2.7 6.5 6.5 6.5zM231.8 389.3c-.3-.6-.4-1.3-.4-2.1.2-2.1 1.7-3.7 3.5-3.5l.3-3 17.4-8.6c2.2 2.5 3.5 6.1 3.1 10l-.8 9.9c-.1 1-.3 1.9-.5 2.8 1.4-1 2.3-2.6 3.4-3.9 1.7-2 4.2-3.2 6.4-4.8 2.1-1.6 4-4.1 3.6-6.7-.3-2.1-2.1-3.8-2.2-6-.2-3.1 3.1-5.8 2.5-8.8-.9-4.6-8.7-3.9-11-8-1.6-2.7-.3-7.2-3.2-8.6-1.4-.7-3-.2-4.5.1-3.1.5-6.4-.1-9.1-1.8-.9-.5-1.7-1.2-2.7-1.4-2.4-.4-4.2 2-5 4.3s-1.4 4.9-3.4 6.1c-2.9 1.8-7.4-.2-9.8 2.2-2 2-1 5.4-.3 8.2.6 2.8-.4 6.8-3.3 6.6-.7-.1-1.4-.4-2.1-.5-2.6-.3-4.5 2.8-4 5.3s2.5 4.5 4.4 6.2c4 3.7 8.4 7.2 12 11.2.9 1 1.9 2.6 3.1 3.9l.6-7.3c-.1-1 .9-1.8 2-1.8z"/><path class="st7" d="M191.4 528.7c-1.8 3-3.8 5.9-6 8.6-14.8-7.4-35-23.8-49.3-32.5-.9-.6-1.8-1-2.6-1.3-7.1-2.9-10.6 1.8-6.6 7.5.8 1.1 1.9 2.3 3.3 3.5 30 24.2 22.8 23.2 56 42.7 6.2 3.6 15.4-5.4 21.1-12.6-6.4-3.8-11.6-9.5-15.9-15.9zm-8.6 11.6c-.5.2-.2 0 .5-.3-.3.1-.4.2-.5.3zm4.6-2c-.1 0-.1-.1-.2-.1.3-.1.3-.1.2.1zm.1 0c.7-.4 1.3.5 0 0zM188.2 395.6c-.9-.9-1.8-1.7-2.6-2.7-2-2.3-3.8-4.6-5.2-7.1-1.9-16.5-2.3-20.4 1.7-40.1.3-1.6-.2-3.2-1.1-4.2v-.2c.2-1.3.2-2.7-.4-3.9-.5-1.2-1.8-2.2-3.1-2-.1 0-.2.1-.3.1v-.2c-.3 0-.5.1-.8.1 1.1 0 .4.1-.2.1-.2.1-.9.4-1.1.5-.1.1-.3.2-.4.2-.1 0-.1.1-.2.2-.4.4-.8.7-1.2 1l-.1.1c-.4 1.6-.7 3.1-.9 4.7-.2 1.3-.2 2.6.1 3.8v.1c.2.4.4.8.7 1.2-.9 4-1.7 7.4-2.4 10.4-.9 13.3-4 28.8 2 41.2 0 .1.1.2.1.3.7 1.5 2.5 3.7 4 5.7 3.5-3.8 7.3-6.9 11.4-9.3zM280.8 430c2.3-.8 4.8-1.8 6.1-2.6.1-.1.2-.1.3-.2 11.7-7.3 17.2-22.2 23.4-33.9 1-3 2.1-6.3 3.4-10.1.4-.2.9-.4 1.2-.7 0 0 .1 0 .1-.1 1-.8 1.6-2 2.1-3.1.7-1.5 1.2-3 1.7-4.5v-.1c-.1-.5-.3-1-.5-1.5 0-.1-.1-.2-.1-.2-.1-.1-.1-.3-.2-.4-.1-.2-.6-.8-.7-1-.4-.4-1-.8-.1-.2-.2-.2-.4-.3-.6-.5v.2c-.1-.1-.1-.2-.2-.3-1-.8-2.6-.6-3.7.1s-1.8 1.9-2.3 3.1c0 0 0 .1-.1.1-1.3.4-2.5 1.5-3.1 3-7 18.8-9.4 22-19.7 35-1.9 1.1-4.1 1.9-6.3 2.7 1.5 5.4.7 9.8-.7 15.2z"/><path class="st3" d="M273.5 511.2c-3.9-3.4-8.2-6.5-12.8-9.2-4.8-2.9-9.9-5.5-15.2-7.8h-40l-3.5-.6c-.4 2.1-.3 4.2.3 6.1-1.9 10.4-5.5 20.2-10.9 28.9 4.3 6.4 9.5 12.1 16 15.9 1.6-2 2.9-3.9 3.9-5.3 6-9.1 10.8-18.9 13.9-29.2 15.4 4.2 24.3 6.5 30.7 9.9a31.973 31.973 0 0 1 0 0c4.4 2.4 7.7 5.3 11 9.7 5.6-1.5 10.8-4.1 15.7-7.5-2.8-4.3-5.6-7.9-9.1-10.9z"/><path class="st7" d="M311.6 577.8c-.3-1.3-.9-2.7-1.8-4.3-14.7-25.3-20.8-40.7-27.3-51.3-4.9 3.4-10.1 6-15.7 7.5 2.5 3.3 5 7.3 8.2 12.7 7.9 13.3 15.1 26.7 24.7 38.8 1.9 2.4 4.2 3.7 6.3 4 3.9.6 7.1-2 5.6-7.4zM245.7 414.1c-1.8-.6-3.6-1.1-5.5-1.5l.8-9.7c.8.3 1.6.5 2.4.6 4.9.4 9.3-3.4 10.8-8.7.2-.9.4-1.8.5-2.8l.8-9.9c.3-3.9-.9-7.5-3.1-10l-17.4 8.6-.3 3c-1.7-.1-3.3 1.4-3.5 3.5-.1.8.1 1.4.4 2.1-1.1 0-2 .8-2.1 2l-.6 7.3-1 11.7c-2.8-.4-5.5-.7-8-.9.8 9.8 3.2 19.5 9.1 26.1 6.3-6.4 12.2-13.2 16.7-21.4z"/><path class="st8" d="M205.6 494.2h44.2c-.3-4.8-.6-9.7-.5-14.5-.9-6.1-.9-12.3.7-19.1 2.1-9.2 4.6-17.4 5.8-25.8 4-.3 7.8-.9 11.8-1.7 2.7-.6 5.4-1.2 8-1.5h.2c.4-.1 2.6-.7 5-1.5 1.4-5.4 2.2-9.7.7-15.2-.6.2-1.2.5-1.9.7-3.5 1-7.2 1.7-11 2.1-4.4.5-8.8.7-13.1.6-2.3-1.3-4.8-2.4-7.5-3.4-.8-.3-1.6-.5-2.4-.8-4.5 8.2-10.4 15-16.6 21.4-5.9-6.6-8.3-16.3-9.1-26.1-1.1-.1-2.1-.2-3.2-.2-2.4-.1-4.6-.2-6.4-.2-1.2 0-2.5.1-3.8.2-4.3-2.5-8.8-5.4-12.9-8.7-2-1.6-3.8-3.2-5.6-4.9-4.1 2.4-7.9 5.5-11.1 9.3 1.5 1.9 2.9 3.4 3.3 3.7.1 0 .1.1.2.1 2.1 1.7 4 3.6 6 5.5 4.6 4.2 9.2 8.2 14.8 11.4l.9.6c.2 8.8 1.4 17.7 1.4 26.4-.1 14-2.4 27.4-1.6 41h.1l3.6.6z"/><path class="st3" d="M133.5 503.5l-3.1-6c-.3-.5-1.1-.4-1.7.2l-13 12.3c-3.4 3.2-1.8 7.2 2.2 5.3l9-4.2c-4-5.7-.5-10.5 6.6-7.6zM320.6 572.3l-9 5.5c1.4 5.4-1.7 8-5.6 7.4l4.1 6.1c.3.5 1.1.3 1.7-.4l11.5-13.6c3.1-3.5 1.1-7.3-2.7-5z"/><path class="st5" d="M285.9 60.1c1.4 1.2 3.2 2 4.2 3.6.8 1.3.8 2.8 1.5 4.2.9 1.8 2.9 3 4.9 3 1.9 0 4-1 5.6 0 .7.5 1.2 1.3 2 1.7 2.6 1.4 5.3-3 8.1-2.2.6.2 1.1.6 1.7.9 2.4 1.2 4.1-.8 6.1-1.9 1.9-1.1 3.8-2.8 2.4-5.3-.4-.8-1.2-1.4-1.8-2.1-1.5-1.9-1.9-4.5-3-6.7-1-2.2-2.8-4-4.9-5.2-1.6-.9-3.4-1.4-4.6-2.8l-.1-.1c-.8-1-1.3-2.2-2.1-3.2-1.3-1.6-3.4-2.4-5.4-2.1-3.7.5-6.3 4.4-10 4.8-1.6.2-3.3-.4-5-.3-2.5.1-5 2-5 4.5 0 1.2.6 2.4 1.2 3.4 1.1 2 2.3 4.2 4.2 5.8z"/><path class="st3" d="M328.5 70.6c.2-.3 0-.7-.3-.9L312 61.4l-2.6-8.1c-.1-.3-.5-.5-.8-.4s-.5.5-.4.8l2.2 6.9-6.5-3.3-2.6-8.1c-.1-.3-.5-.5-.8-.4s-.5.5-.4.8l2.2 6.9-9.3-4.8c-.3-.2-.7 0-.8.3-.1.2-.1.4 0 .6.1.1.1.2.3.2l9.3 4.8-7.4 2.4c-.3.1-.5.5-.4.8 0 0 0 .1.1.1.1.3.5.4.7.3l8.6-2.8 6.5 3.3-7.4 2.4c-.3.1-.5.5-.4.8 0 0 0 .1.1.1.1.3.5.4.7.3l8.6-2.8 16.2 8.3c.2.2.6.1.8-.2z"/><path class="st5" d="M524.6 152.4c.7 2.3 2 4.4 3.9 5.9 1.4 1.1 3.1 2 4.1 3.5l.1.1c.6 1.1.9 2.4 1.5 3.5 1 1.8 3 3 5 3 3.7.1 6.9-3.3 10.6-3.1 1.7.1 3.2.9 4.8 1.1 2.5.3 5.3-1.2 5.7-3.6.2-1.2-.2-2.4-.6-3.6-.8-2.3-1.6-4.7-3.2-6.5-1.2-1.4-2.8-2.5-3.5-4.2-.5-1.4-.3-2.9-.8-4.3-.6-1.9-2.3-3.5-4.3-3.8-1.9-.3-4.1.4-5.5-.9-.6-.6-1-1.5-1.7-2-2.3-1.8-5.7 2.1-8.4.8-.6-.3-1-.8-1.5-1.1-2.2-1.6-4.2.1-6.3.8-2 .7-4.2 2.1-3.2 4.8.3.9.9 1.6 1.4 2.4 1.3 2.2 1.2 4.9 1.9 7.2z"/><path class="st3" d="M548.9 158.8l-8.4-6.3 7.7-1.1c.3-.1.6-.4.5-.7v-.1c-.1-.3-.4-.4-.7-.4l-8.9 1.3-5.8-4.3 7.7-1.1c.3-.1.6-.4.5-.7v-.1c-.1-.3-.4-.4-.7-.4l-8.9 1.3-14.6-10.9c-.3-.2-.7-.2-.9.1s-.1.7.1.9l14.6 10.9 1.3 8.5c0 .3.4.6.7.5s.6-.4.5-.7l-1.1-7.2 5.8 4.3 1.3 8.5c.1.3.4.6.7.5s.6-.4.5-.7l-1.1-7.2 8.4 6.2c.3.2.7.2.9-.1.1-.2.2-.4.1-.6 0-.2-.1-.3-.2-.4z"/><path class="st0" d="M552 83.7s-15.2-6.7-26.3-.8c-11.1 5.9-13.9 22.3-13.9 22.3s15.2 6.7 26.3.8c11-6 13.9-22.3 13.9-22.3z"/><path class="st3" d="M542.7 88.4c-.2-.3-.5-.4-.9-.3l-9.5 5.1 2.2-7.2c.1-.3-.1-.7-.4-.8s-.7.1-.8.4l-2.6 8.4-6.7 3.6 2.2-7.2c.1-.3-.1-.7-.4-.8-.3-.1-.7.1-.8.4l-2.6 8.4-16.6 8.9c-.3.2-.4.6-.3.9.1.1.1.2.2.3.2.1.4.1.6 0l16.5-8.8 8.9 2.7c.3.1.7-.1.8-.4s-.1-.7-.4-.8l-7.7-2.3 6.7-3.6L540 98c.3.1.7-.1.8-.4s-.1-.7-.4-.8l-7.7-2.3 9.6-5.1c.5-.3.6-.7.4-1z"/><path class="st0" d="M501.4 8.3c0-4.6-3.7-8.3-8.3-8.3-4.6 0-8.3 3.7-8.3 8.3s3.7 8.3 8.3 8.3c4.6 0 8.3-3.7 8.3-8.3z"/><path class="st3" d="M379.1 195.4c.9.1.8.4 1.9.5.4.4.4 1 .1 1 .3.1.3.8.9.9.1-.9-.4-1.8-1.4-2.4 0-.3.3-.2.4-.2-.7-.4-1.7-.6-1.9.2zM374.4 189.5c.1.2.3.3.4.4-.1-.1-.2-.3-.3-.5 0 .1 0 .1-.1.1zM382.2 245.8c0-.3.1-.5.3-.7-.4.4-1.2-1.2-.3.7z"/><path class="st3" d="M374.3 189.2c.1.1.1.2.2.3.1 0 .2 0 .2-.1-.1 0-.3-.1-.4-.2zM460.8 151.8c.1.4.3.7.5 1 .1 0 .2.1.3.1-.3-.4-.6-.7-.8-1.1zM378.8 193.4c.3.3-.1.4-.4.3.3.2.6.4.8.4l-.4-.7zM378.4 193.7s-.1 0-.1-.1c0 .1 0 .1.1.1z"/><path class="st3" d="M479.5 219.7l.1.2c-.3-1.1-.8-2.1-1.2-3.1-.3-1.5.6.8.7-.4-1.8-3.1-1.6-5.4-3.4-7.8.2-1.4-.9-3.2-2.3-4.9-.7-.8-1.6-1.6-2.4-2.4-.4-.4-.8-.7-1.2-1.1-.2-.2-.1-.2-.2-.3 0-.1-.1-.2-.1-.4l-.2.3c-.6-.1-.3-.7-.5-1-.2.2.2.7-.2.5-1.9-1.9-3.1-4.8-3.6-7.5-.2-1.4-.3-2.8-.2-4.2.1-1.4.4-2.7.8-3.9.2-.7-.1-1.1-.3-1.5-.2-.5-.3-1 .8-2.1l.2 1.1c.3-1.1 1-2.4 1.4-3.8.4-1.4.6-2.8.8-4.1.2-2.7 0-5.4-.9-7.7.2.3.4.2.5.7.3-1.2-.9-3.8-1.3-3.7-.2-.7.3-.3.4-.8 0-1.1-1.5-2.3-1.2-3 0-.1.3.2.4.4-.2-.3-.5-1-.9-1.7-.3-.6-.7-1-.7-.6-.8-2-2.4-3-3.2-4.3-1.1-.3-2.2-2.4-3-1.9.3-.3-.2-1-.9-1.6-.9-.7-2.1-1.1-2.7-1.2.5-.1-.8-.7-.2-.9-1.2-.6-2.1-.9-2.2-.4-.7-1-1.4-1.3-2.1-1.7s-1.1-.8-.6-1.4c-.6-.7-.9-2.8-1.6-4.7-.6-1.9-1.5-3.6-2.5-5.1.4-.2 1 .7 1.4 1.6.4.9.8 1.8 1.2 1.6-.8-1.7-1.7-2.8-2.6-3.9-.9-1-1.8-2.1-3-3.4-.5-.7.6.1 1 .2-1.4-1.2-2.7-2.3-4.1-3.2-1.4-.9-3-1.6-4.5-1.8 0-.1.4-.1.7 0-.6-.2-1.3-.5-1.4-.1l.6.1c.4.4-.3.6-1 .7s-1.6.2-1.7.3c1.2-1-2.6-1-.8-2.1-.4 0-.8.1-.8.4-.5-.2-.6-.4 0-.6-1.8-.3-1.4.4-2.9-.2.1-.2.4-.1.6-.3-.4.1-.9.1-1.4 0-.2 0-.5-.1-.7-.2-.3-.1-.6-.3-.9-.6.1-.1.1-.3.5-.1-1.2-.6-2.2-1.1-3.5-1.3-1.3-.3-2.5-.4-3.9-.8 1-.8-1-.4-1-1.2-.6 0-1.1 0-1.7.1l.6.4c-1.4-.1-2.7.4-3.9.2l1-.3c-.9 0-1.8.1-2.6.2.5.1 1 .1 1.5.2-1.4.5.2 1-1.7.9.4-.1-1.4.1-2.1-.2-.6.3-1.3.7-2.3.7-.3-.2 0-.9-.2-1-.5.8-3.1 1-3.7 1.9.2-.2.1-.6 0-.7l-.4.7c-.7 0-.8 0-.8-.3-1.8.6.9.7-1.4 1.1.1-.1 0-.1.4-.4-2.2.6-3.9 2-5.9 2.8-.9-.4 1.5-1.1.6-1.3-2.7 1.6-5 4.1-7.3 5.9l.5-.3c.4 1.1-2 1-2.7 2.6.2-.3-.1-.8-.1-.6-1.5 1.4-2.6 3.3-3.8 6.2l-.1-.5c-.9.9-1.5 2.9-1.9 4.2.2.5 0 1.2.5.8-1.2 1.9-1 4-.6 5.8s.9 3.5.4 5.3c0-.4-.4-.9-.3-.6l.5 2.8c.5-.3.3-.4.6-1 .3.3.6 1.1.7 1.9-.4-1.3-.8.1-1 .6.1-.1.3.1.5 0-.8 1.5 1 .2.4 2.3l-.2-.1c.1.7.3 1.5 0 2.3-.6.2-.1-.8-.5-1-.1 1.1.5 2.5-.4 3.3 0-.5.3-1.2.3-1.7-1 .9-.8 1-1.3 1.7-.3.5-.7 1-1 1.5l.4-.4c.7 1.9-1.2 2.7-1.3 4.9.2-2.1-.3-.5-.8-1-.4.4-1 .9-1 .7 0 1.1-1.1 1.2-1.1 2.9-.2 0-.4 1-.8.6-.3 1.3.4-.2.6 0-.1 1.1-.5 2.1-1 3.4-.4 1.2-.6 2.7-.1 4.2.2 1.2.6 1.9 1 2.6.3.6.7 1.2 1.1 2.1v.2c-.2.6-.8-.4-.8-.4 0 1.3.4 2.2 1.1 3.1-.3-.1-.3.1-.3.6.5.8.9.2 1.3 1.4-.3-.1-.8-.1-1.2-.4.7.9 1.7 1.6 2.6 2.4-.1.5-.8-.2-1.3-.4.6.7 1.4 1.3 2.1 1.7-.9-.5-.8-1.2-.7-1.4l.6.5c.2-.7-.4-1.2-1.1-1.8s-1.5-1.3-1.8-2c.4.1.7.1 1 .2.2.4.3.9.6 1.2 1.2 1.7 2.8 3.1 4.1 4.8.8 1.1 1.5 2.3 2.1 3.5v.1c-.3.1-.7.1-1 .3 0-.1.1-.3-.1-.5l-.8-.1c.2.2.4.5.5.7h.1c-.3.3-.6.8-.5 1.9.3.4.7.9 1 1.3l-.3.6c-.1-.4-.2-.8-.4-1.3-.2.8.3 1.2.7 1.6-.2.2-.3.4-.4.8.4.4.8.9 1.2 1.4-.3.2-.8-.6-.9.5.5.7.8-.8 1.2.4-.4.8-.7.6-.3 1.5-.2.1-.4 0-.5-.4.4.8.3 2.1.8 2.5-.5.8.1 2.8-.8 2.7.2.3.6 1.5.6 2.2-1-1.5-.3 2.8-1.5 2.3.8 1.1-.1 3.7.1 5.7-.1-.1-.2-.3-.1-.5-.3 1-.6 1.3-.9 1.9.8.3.6 2 1 2.9-1 1.2-.8-1-1.6-.7.7 0 .3 2.4.9 2-.6 1-.4.8-1.1 1.3 1 .3 0 1 .6 1.9-.6 1.5-1 .3-.8 2-.3.8-.6-.8-.6-.8-.1 1.8.7.9 1.2 1.2.2 2.1-.6 1-1 1.7.2 1.3 1.1 2.3 1.2 3.3-.1.1-.1.3-.3.1.4.7.7 1.7.9 2.7.4 1 .7 2.1 1.4 2.6 0 .1 0 .2-.1.3.3-.4.6-.6.9-.6.3.7 1 1.1.7 1.5-.2-.4-.4-.4-.6-.5l.5.6c-.3 1-.7-.9-1.2-.7.8 1.4 2.3 2.6 2.7 3.7-.5.6-1.6-2.3-1.4-.6-.2-.6-.5-1.2-.7-1.8-.1.9-.3.6-.4.4-.1-.3-.3-.6-.5.3 1.1 2.3 1.7 2.3 3 4.4.6.2.4-.5 1-.3 2.7 2.2.4 3.3 2.9 4.5.8.1 1.6-.3 2.6 1.2l-1 .2c1.7 1.6 1.8 0 3.3 1.9-.5 0-1.6-.9-1.4-.6.8 1.5 1.2.3 2.1 1.1l-.2.7c2.1 1.4 4.7 2.4 7.1 3.6-.2.1-.8.1-.3.6 3.2 1.3 6.5 3.3 9.5 4.9l1.4-.1c.3.1.4.4.1.4 1.1.7.2-.3.9-.4.7.2.8.6.3.7 2.3.3 6.4.9 8.6 2.1l-.5.1c1.8.7 2.3-.7 3.9.2h-.3c3.9 1.1 8.4 1.1 11.3 2.2.6-.8 4 .6 4.3-.6 2.3.6 1.6.9 5 1 .9 0 1.3-.9 2.3-1.2l.1.6c.5-.3.9-.6 1.4-.9.3.2.6.4 1 .6.3-.1.7-.3 1-.4-.4.1-.9-.1-.9-.3 1.5-.6 4-.8 4.1-.5 1.2-.7 2.3-1.4 3.4-2.3 0 .2-.2.4-.4.7 1-.8.4.6 1.7-.8-.3 0-.1-.4-.1-.5 1-.2 2.9-1.7 3.9-3l.1.5c2.2-2.2 3.9-5.4 4.7-9-.5 1.2-1.2.7-1-.3l.7-.3c-.3-.7-.4 1-.7-.4.2-.6.4-.8.6-.7.2.1.4.3.4.7v-1.5c.2-.1.3.3.5.4-.3-.6 1-2.3.3-3.2l.2-.1c.4-2.9.3-4.2.9-6.3-.5-.2-.2-1-.4-1.8.8-1.5 2-2.9 3.1-4.7.5-1.5-.2-.6-.2-1.4.5.2 1.6-1.7 1.3-.6 1.2-2.3 1.7-3 2.7-6.3-.4.3-.6.6-.7.3.2-.6.8-1.2 1-1v.2c.4-2 1.5-4 2.2-6.2.4-1.2.6-3.7-.2-5.2zm-99.6-70.5c.2-.1.4-.1.6 0 0 .3 0 .6.1 1-.3-.1-.5-.3-.7-1zm-6.4 30.4c.2-.2.4-.3.6-.5 0 .5-.1.9-.1 1.4-.1-.1-.3-.3-.5-.9zm1.5 8.3c0-.3.3-.5.6-.3.2.5.4.9.7 1.4-.4-.3-.9-.7-1.3-1.1zm27.1 76.2c-.1-.1-.3-.1-.4-.2.1 0 .2.1.4.2zm1.6.8c0-.2.2-.4.5-.2-.2 0 .4.5.8.9-.4-.2-.8-.5-1.3-.7zM448.6 274.9v-.1l-.3.2z"/><path class="st3" d="M375.8 168.9c0 .1.1.2.2.2l-.2-.2zM377.9 194.3l-.2-.2.2.2zM373.1 186.8h.2c-.4-.3 0-1.9-.5-2.4.1.7-.1 1.7.3 2.4z"/><path class="st9" d="M382.9 184.8c-4 2.4 23.4 38.1 23.4 38.1l35-32.2s-4.1-2.8-9.1-4.7-11.1-3.2-11.1-3.2l.1-12.6s5.3-2.4 7.8-9.9c2.5-7.4 5.3-24.4-8.2-27.1 0 0-13.4-3.6-22.6 2.4-.9.1-3.2 13.3-1.9 20.8 1.3 7.5 3.1 12.2 7.4 15.4 0 1.6-1.1 9.4-1.1 9.4s-15.7 1.2-19.7 3.6z"/><path class="st3" d="M426.3 150.3c2.7 3.6.4 12.4 10.4 20.4s16.8-12.2 9.6-22.2c-7.1-10-19.2-21.5-38-23.4 0 0-3.1 7.8-1.5 10.4 3.7 6 14.9 8.6 19.5 14.8z"/><path class="st9" d="M432.5 157.7c.4-1.7-.4-3.3-1.9-3.7-2-.5-3.9 1.5-3.9 1.5l-1.8 7.8s1.4.1 3.1-.5c2.2-.7 4.2-3.7 4.5-5.1zM404.3 334.1s-28.6-24.3-31.5-8.7c-2.9 15.6-3.7 31.3-2.9 43.8.8 12.5.5 13.1 6 28.6s17 55.2 17 55.2l14.2-3.2s0-21.6-3.6-39c-3.6-17.5-7.3-31.3-7-32.4 2.2-7.5 7.8-44.3 7.8-44.3z"/><path class="st3" d="M391.7 147.1c.3.1.5-.2.7-.4 2.4-2.8 11-8.9 13.7-11.4 2.2-2-.6-5.5-1.2-6.3-.9-1-1.9-2.5-2.9-3.3-1-.9-2.6-.7-3.9-.2s-3.9 3.8-4.1 4.5c-.9 3.6-1.9 7.3-2.8 10.9-.5 1.9-1 4.1 0 5.9.2.1.3.3.5.3z"/><path class="st9" d="M409 325.4c-.7 15.8.6 31.5 3.1 43.7s2.3 12.9 9.8 27.5 24.4 52.4 24.4 52.4l13.7-5s-2.9-21.4-8.9-38.2c-6-16.8-11.5-30-11.3-31.1 1.1-7.7 1.7-44.9 1.7-44.9s-31.8-20.2-32.5-4.4zM530.2 209c4.5-3.1 3.3-13.2.4-14.3-2.9-1.1-14.2 8.5-16.4 10.4s-8.8 7.8-8.8 7.8c2.4 3.5 4.5 7.2 6.6 11 4.8-5.8 8.1-9.9 8.1-9.9s5.6-2 10.1-5zM317.4 162.3s3.4 15.5 7.5 31.8c1.5-1.2 2.9-2.3 4.4-3.5 2.9-2.3 3.3-3.6 6-6.1 0 0-6.2-23.8-9.6-30.3-3.3-6.6-11.1-14.2-14-15.2-3-1-5.1 11-2.6 14.5 2.5 3.5 8.3 8.8 8.3 8.8z"/><path class="st5" d="M477.6 262.4c7.1-1.5 27.3-27.3 37.5-39.9l-6.1-12.8-31 25.5s-29.9-42.3-33.9-45.1c-4-2.8-15.7-5.6-15.7-5.6s-3.3 11.4-18.2 11.5c-18.1.1-18.3-13.7-18.3-13.7s-9.4.4-12.5 2.4c-3.1 1.9-34.1 20.6-34.1 20.6L330 164.4c-3 3.6-7.7 9.3-10.7 12.9 4.6 19.7 11.2 56.1 15.5 56.8 10.5 1.7 31.6-8.1 40.6-9.6-.1 3.5.2 12.2 0 15.8-2.2 29.9-13 85.7-20.4 112.7 31.6 16.8 85.7 16.3 109.1-5 0 0-24.3-114.3-23.8-119.7 8.8 17.7 32 35.2 37.3 34.1z"/><path class="st8" d="M354 198.1c-5.1 7.4-.4 45.4-.4 45.4 6.8.1 13.3-.7 18.4-5.1 0 0-3-40.9 1.8-50.8-2.4.3-15.1 3.7-19.8 10.5zM484.8 286.3s14-7.3 14.6-14.2c-26.8-7.3-29.7-39.8-36.1-62.5C457 187 432.2 186 432.2 186c19.8 9.5 12.7 36.2 20.4 61.9 8.1 27.2 32.2 38.4 32.2 38.4z"/><path class="st5" d="M394.6 495.7c1.4 5.2 3.6 6.5 8.2 4.9 5.3-1.8 8.4-10 8.4-15.5-.1-5.4 3.2-8.4 3.1-12.1s-.1-5.9-1.8-10.2c-1.7-4.3-4.7-39.1-4.7-39.1-13.1 3.5-19 4.7-25.6 5.6 0 0 13 37.4 13.1 42.2.1 4.8-2.2 18.6-.7 24.2zM464.6 457.4c-2-3.9-7.6-39.5-7.6-39.5-7 5.3-14.3 7.7-23.3 8.6 0 0 13.8 34 14.3 38.7.5 4.6-.7 20 1.1 25.2 1.7 4.9 5 7.2 9.5 5.9 5.1-1.4 7.9-12.5 7.4-17.7s1.2-8.5 1.3-12.1c.1-3.8-.7-5.2-2.7-9.1z"/><path class="st3" d="M385.2 56.1s-1.5 1.9-1.9 2.1c3.9 2.6 11.4 1.7 11.4 1.7s2.5 7.1 6.6 9.4c.1-.4 1.1-2.6 1.1-2.6 4.4.5 8.9.9 14.5-2l-3.8-4.4s5.1 1.4 9.4-11.7c0 0-7.4-2.2-13.1-.2 2.1-1.6 2.5-4.3 2.5-16.4-10.8 5.4-13.1 7-13.6 9.6-.8-6-6.1-11.6-6.1-11.6-9.7 9.7-6.2 13.7-6.2 13.7l-5.7-1.4c.1 6.3 2.5 10.1 4.9 13.8z"/><path class="st5" d="M412.6 53.6c-.2-.4-.6-.5-1-.3-.1 0-5.5 2.7-15.2 5.4l9.4-15.2c.2-.3.1-.8-.2-1-.3-.2-.8-.1-1 .2l-9.4 15.2c-1.9-9.8-2-15.8-2-15.9 0-.4-.3-.7-.7-.7-.4 0-.7.3-.7.7 0 .3 0 6.1 1.9 16.1-2.3-2-4-4-5.3-6.2-.2-.4-.7-.5-1-.3-.4.2-.5.6-.3 1 1.6 2.7 3.8 5.2 6.7 7.5l-4.4 7.1c-.2.3-.1.8.2 1 .1.1.3.1.4.1.2 0 .5-.1.6-.3l4.4-7.1c3.4 1.6 6.6 2.5 9.7 2.7.4 0 .7-.3.7-.7s-.3-.8-.7-.8c-2.5-.1-5.1-.8-7.9-1.9 9.8-2.7 15.1-5.4 15.3-5.5.5-.3.6-.8.5-1.1z"/><path class="st0" d="M327.7 125.1s-15.6-5.5-26.3 1.3c-10.6 6.8-12.2 23.3-12.2 23.3s15.6 5.5 26.3-1.3c10.6-6.8 12.2-23.3 12.2-23.3z"/><path class="st3" d="M333.4 121.6c0-.1 0-.2-.1-.3-.2-.3-.6-.4-.9-.2l-15.8 10.1-8.6-1.9c-.3-.1-.7.1-.8.5-.1.3.1.7.5.8l7.4 1.6-6.3 4.1-8.6-1.9c-.3-.1-.7.1-.7.5-.1.3.1.7.5.8l7.4 1.6-9.1 5.8c-.3.2-.4.6-.2.9.2.3.6.4.9.2l9.2-5.8-1.7 7.9c-.1.3.1.7.5.8.3.1.7-.1.8-.5l2-9.1 6.3-4.1-2.1 7.6c-.1.3.1.7.5.8.3.1.7-.1.8-.5l2-9.1 15.8-10.1c.2-.1.3-.3.3-.5z"/><path class="st1" d="M1542.1 546.8c61.5 0 106.3 36.9 110.7 110.7 6 80.6-49.2 110.7-110.7 110.7-61 0-110.7-29.1-110.7-110.7 0-79 49.2-110.7 110.7-110.7zM1651 796.6c1.6 23.6-16.5 36.4-36.4 36.4s-38.5-16.5-36.4-36.4c2.9-25.9 16.5-36.4 36.4-36.4 20.7 0 35.1 16.5 36.4 36.4z"/><path class="st3" d="M1540.6 737.3v176h3.9v-69.6l71.7-45.8-2.1-3.1-69.6 44.5v-102h-3.9z"/><ellipse class="st2" cx="1514.7" cy="623" rx="22.1" ry="27.2"/><path class="st3" d="M1505.6 647.7c2.8 1.5 5.8 2.5 9.1 2.5s6.3-.9 9.1-2.5c3.9-4.3 6.5-11.2 6.5-19.1 0-13-7-23.6-15.6-23.6s-15.6 10.6-15.6 23.6c0 7.9 2.6 14.8 6.5 19.1z"/><ellipse class="st2" cx="1509" cy="611.3" rx="5.6" ry="4.8"/><ellipse class="st2" cx="1573.6" cy="623" rx="22.1" ry="27.2"/><path class="st3" d="M1564.5 647.7c2.8 1.5 5.8 2.5 9.1 2.5s6.3-.9 9.1-2.5c3.9-4.3 6.5-11.2 6.5-19.1 0-13-7-23.6-15.6-23.6s-15.6 10.6-15.6 23.6c0 7.9 2.6 14.8 6.5 19.1z"/><ellipse class="st2" cx="1567.8" cy="611.3" rx="5.6" ry="4.8"/><ellipse class="st4" cx="1483.1" cy="661" rx="8.8" ry="5.1"/><ellipse class="st4" cx="1605.2" cy="661" rx="8.8" ry="5.1"/><path class="st3" d="M1572.2 674.6c3.6 0 6.3 3.3 5.6 6.8-3.1 15.7-17 27.5-33.6 27.5s-30.5-11.8-33.6-27.5c-.7-3.5 2-6.8 5.6-6.8h56z"/><path class="st4" d="M1562.5 703.6c-5.3 3.4-11.6 5.3-18.4 5.3s-13.1-2-18.4-5.3c2.6-6.7 9.8-11.5 18.4-11.5s15.9 4.8 18.4 11.5z"/><path class="st10" d="M764.8 867.9c-4-3.3-6.1-4.9-8.1-10-2-5-1-14.1-1-14.1-3.1.6-18.9-4.4-18.9-4.4l5.3 38.7 27.9.2s-1.2-7.1-5.2-10.4z"/><path class="st11" d="M788 681.1c1.4-14.5-7.8-32.5-15.3-38.6s-31.4-2.5-31.4-2.5-39.4 31.5-50.1 29.3c-10.8-2.2-16.2 4.8-17.8 10.1-1.7 5.3-2.1 16.7 1.8 26.1 3.9 9.4 10.2 11.1 10 20.1-.3 9-9.8 21.6-9.8 21.6s19.2 17 47 20.3c27.9 3.2 48-9.9 48-9.9s-.9-6.2-1.3-13.9.4-8.5 1.1-19.3c14 15.8 33.5 15.5 33.5 15.5l-5.3-19.6c-7.9-6.9-11.8-24.7-10.4-39.2z"/><path class="st5" d="M804.5 779.6c-10.8-9-31-16.4-31-16.4l-3.2-5.6c-12.8 2.8-24.2 0-24.2 0s.7-10.8.5-14.3c-.3-3.5-2.9-15.8-15.8-19.7-12.9-3.9-22.4 4.5-26.5 8.4-4 3.9-11.6 17.5-14.3 21.8-10.3 0-14.7-6.5-14.7-6.5s-7.6 12.1-9 21.3c-1.9 12.6.6 32.4 11.4 39.8 10.8 7.4 28.7 6.7 28.7 6.7s7.4 23.1 11.4 29.7c8.4 1 18.8-.8 21.8-3.4 9.1 3.7 16.2 2.4 16.2 2.4s41.4-8.2 49-9.4 10.2-1.8 18.4-6.8 7.8-12.2 5.4-24c-2.5-11.8-13.3-15-24.1-24z"/><path class="st3" d="M831 618.7c-1-10.8-8.7-21.6-21.2-17.7-12.6 3.9-11.8 23.3-11.8 23.3s-10.4 7.6-11.8 21.5c-1.3 13.4 3.9 30.2 35.7 34.6 0 0 18.4 3.9 34.9-7.6s30.2-37.9 15.4-52.4c-9.6-9.4-29.1-14.2-41.2-1.7z"/><path class="st12" d="M730.9 592.5s-19.5-3-25.5 9.6c-6.1 12.6 4 56.9 4 56.9s15.4 6.3 21.5 5.8 10.9-5.1 11.6-9.9c.8-4.8-1.6-12.5-1.6-12.5s5-2.8 7.3-5.4c2.9-3.3 3.4-7-2.7-23.9-6-16.8-14.6-20.6-14.6-20.6z"/><path class="st3" d="M855.8 714.8h-57.5c-2.5 0-4.4 2.3-3.9 4.7l10.3 52c.4 1.9 2 3.2 3.9 3.2h36.9c1.9 0 3.5-1.3 3.9-3.2l10.3-52c.5-2.4-1.4-4.7-3.9-4.7z"/><path class="st13" d="M712.3 580.7c-9.2 2.2-19 1.6-27.3 20.9-8.3 19.3 6.7 23.9-4.4 43.4-11 19.5-7.3 34.4-7.3 34.4s4.8-6.9 14.2-7.8c9.4-.9 17.2 18.6 20.9 25.2 3.7 6.7 11.5 10.8 13.3 5.3s3-15.1-2.8-23.6c-5.7-8.5-5.7-14.2-3.7-23.4 2.1-9.2-2.5-12.6-2.5-22.3s6-7.6 5.5-15.1c-.5-7.6-1.8-13.5-1.8-13.5s5 .9 11.2-2.3 8.3-12.2 8.3-12.2c-8-6.7-15.8-10.8-23.6-9z"/><path class="st12" d="M842.6 774c-1.8-.5-15 .3-20.9.4-6.4.2-12 .3-12 .3s-.7 1.4.8-1.9 5.6-10.9 2-10.6c-3.5.3-9.6 8.3-12.6 12.3s-10.4 3-18.7 0-34.7-28.1-34.7-28.1c-.1 12.9-2.8 27.6-2.8 27.6s28.1 14.2 37.9 17.2c9.9 3 12.6 3.8 20.5 1.8 7.8-2 8.9-5.3 14.9-8.1 6.1-2.8 16.9-2 21.2-4.3 4.5-2.2 6.2-6.1 4.4-6.6zM701.3 714.4c-5.6 2.3-18.3 3.4-18.3 3.4l17.2 19.5s6.7-7.9 12.3-11c5.6-3 14.6-3.5 14.6-3.5l-12.8-19.5c0-.1-7.4 8.8-13 11.1z"/><path class="st9" d="M863.3 729.9s-7.6-3.3-11.5 0c-3.8 3.3-4.6 10-4.4 14 .2 4 7.9 7.3 11.7 5.9 3.8-1.3 11.8-13.9 4.2-19.9z"/><path class="st2" d="M858.5 640c-.1.1-12.6 11-22.8 17.5-11.1 7.2-10.1 22.8-10.1 23.4.1.9.8 1.6 1.7 1.6h.1c.9-.1 1.6-.9 1.6-1.8 0-.1-.9-14.2 8.5-20.3 10.4-6.7 23-17.7 23.2-17.9.7-.6.8-1.7.2-2.4-.6-.7-1.6-.7-2.4-.1z"/><path class="st2" d="M849.7 630.2c.4-.8 0-1.9-.8-2.3-.8-.4-1.9 0-2.3.8-3.4 7.2-3.3 14.5.2 22.4.3.6.9 1 1.5 1 .2 0 .5 0 .7-.1.9-.4 1.2-1.4.9-2.2-3-6.9-3.1-13.3-.2-19.6zM818.4 657.3c-5.2-5.2-11.2-8.7-14-10.3-.5-.3-1.1-.6-1.3-.8-.8-.6-1.8-.4-2.4.4-.5.8-.4 1.8.4 2.4.3.2.8.5 1.6 1 2.7 1.6 8.5 4.8 13.3 9.8 7.2 7.3 9.8 17.9 9.8 18.1.2.8.9 1.3 1.6 1.3h.4c.9-.2 1.5-1.1 1.3-2-.1-.7-2.8-12-10.7-19.9z"/><path class="st2" d="M813.7 615c-.8.5-1.1 1.5-.7 2.3 5.2 9.5 6.9 23.7 5 43.3-.1.9.6 1.8 1.5 1.8h.2c.9 0 1.6-.7 1.7-1.5 1.9-20.3.1-35.1-5.4-45.2-.5-.9-1.5-1.2-2.3-.7zM825.7 680.8h3.4v34h-3.4z"/><path class="st14" d="M699.7 815.1h4.1c-1.1 0-2.5-.1-4.1-.2v.2z"/><path class="st15" d="M701.9 782.7c.4-12 2.5-22.5-1-22.5-.2 0-.5 0-.8.1-4.6 1.5-4.3 19.7-3.5 31.6.8 11 2.7 21.4 3 23 1.6.1 3 .2 4.1.2h2.4c.2 0-4.6-19.6-4.2-32.4z"/><path class="st16" d="M683.9 753l2.4.6c-1.4-.3-2.4-.7-2.4-.6zM689.9 753.8z"/><path class="st15" d="M689.4 753.8c-1 0-2.1-.1-3.1-.3-.9-.1-1.7-.3-2.4-.6-2.6 3.8-4.6 7-5 8.3-1 3.2.1 6.3 2 6.3.6 0 1.3-.3 2-.9 1.7-1.5 7-12.7 7-12.8h-.5z"/><path class="st17" d="M744.2 843c-1.1-.3-2.3-.6-3.6-1.1 2.3.8 3.5 1.1 3.6 1.1z"/><path class="st15" d="M777.8 803.7c-7.4 0-34 8.2-34 8.2s2-27.5 5.4-35.2c-3.3-1.6-5.4-2.7-5.4-2.7s-3.1 10.8-4.4 20.1c-1.3 9.3-3.9 34.1 0 47.3.4.2.9.3 1.3.5 1.2.4 2.4.8 3.6 1.1 0 0-2.5-16.7-.4-25 7.3-1.4 24.8-7.4 35.5-7.4.7 0 1.3 0 2 .1.5 0 1 .1 1.5.1 8.1-.1 1.9-7.1-5.1-7.1z"/><path class="st18" d="M749.2 776.8c-5.3-2.6-5.4-2.7-5.4-2.7s2.1 1 5.4 2.7z"/><path class="st3" d="M741.1 860.3c-2-6.7-1.7-18.8-1.7-18.8-6.6 3.4-21.8 3.4-21.8 3.4s2.1 10.1 1.7 16.8c-.4 6.7 0 16.7 0 16.7l27-.2s.2-1 0-4.3c-.1-3.1-3.2-6.9-5.2-13.6z"/><path class="st14" d="M775.6 729.7c0-.1-.1-.1 0 0z"/><path class="st16" d="M777 684.1c-3.2.2-1.2 13.9-.7 24s-6.2 16.3-6.2 16.3l5.4 5.2.1.1c.2-.6 5.5-18 5.5-23.8 0-5.9-.9-21.8-4.1-21.8z"/><path class="st9" d="M727.1 648.3c-5 .5-6 5.7-1.4 6.7 4.6.9 10.3 2 8.5 4.2s-4.8.9-4.4 5.7c4.5 0 11.2-1.5 12.8-9.9.9-4.9-1.6-12.5-1.6-12.5s-8.9 5.3-13.9 5.8z"/><path class="st19" d="M921.7 856.3c-15.1-.7-18.2 7.4-18.2 7.4s-3.4-29.2-32.3-28-50.1 19.8-56.9 42.6c14.1-.2 130.1-.1 130.1-.1s-7.6-21.2-22.7-21.9z"/><path class="st5" d="M1159 843.8l-25.3.8s-.1 8.7 0 16.1c.1 7.4 0 17.5 0 17.5h34.4s-.1-10.7-4.5-18.1c-4.3-7.5-4.6-16.3-4.6-16.3zM1110.2 565.7l19.2-28.4s-28-32.8-43.3-37.4-18.1-4.6-33.4 0c-15.2 4.6-18.5 6.2-18.5 6.2s-39.6 31.7-43.8 50c-4.2 18.4-5.7 31-2.7 43.6 3.1 12.6 5.7 24.4 5.7 24.4s9.6 3.2 15 1.5c5.4-1.8 11.4-5.1 11.4-5.1l-1.4-17s12 8.8 13.8 19.3c1.9 10.5 1 33.3 1 33.3s10.5 7.8 43 2.5c32.5-5.4 57-19.4 57-19.4s0-22-10-41.4c-10-19.3-13-32.1-13-32.1z"/><path class="st20" d="M1038.4 508.9c-4.7-4-10.3-4.9-10.3-4.9s-36.9-9.2-60.1 0c0 0 6.5 17.4 14.7 26.8 8.3 9.4 12.7 13.6 17.9 13.4 5.1-.2 13-7.6 13-7.6s1.6 4.1 3.4 7.6c8.3 2.9 21.5-2.7 24.1-12.7 2.7-10.3 2-18.6-2.7-22.6z"/><path class="st5" d="M1032 843.4l-27.7-4.3-24.6 39h49s-.1-11 0-15.6c.1-4.5 3.3-19.1 3.3-19.1z"/><path class="st3" d="M1149 756.8c-3.3-11.4-5.3-29.2-6.4-48.6-1.1-19.5-9.4-68.9-9.4-68.9s-50 16.4-67.5 18.1c-17.5 1.7-32.5-1.1-32.5-1.1-1 50.6-35.8 180.6-35.8 180.6s7.8 7.7 15.3 9.3c7.5 1.7 19.4-2.7 19.4-2.7s2.7-14.5 5.2-22.9c2.5-8.3 6.1-28.7 10.3-45.2 4.2-16.5 10-35.6 12.9-48 3.7-15.5 22.1-40.9 22.1-40.9s10.8 13.1 16.7 28.1 13.9 38.9 19.2 49.7c5.3 10.8 6.1 27.2 8.9 47.2s6.4 33.1 6.4 33.1 8.3 1.9 13.9 1.6c5.6-.4 11.4-2.4 11.4-2.4s-4.2-18.9-6.1-40.6c-2.1-21.7-.7-35-4-46.4z"/><path class="st21" d="M1059.1 615c-4.1-.4-9.8-1.3-11 4.5 0 0 1.4 3.8 4.7 5 3.3 1.2 7.1 1.3 7.7 1.1s2.6-10.2-1.4-10.6z"/><path class="st3" d="M1024.7 496.4c-3.8-1.8-4-8.6-7-16s-13.6-8-23.6-9.6-15.8 4-17.6 9.4-9.2 5.4-14.2 10.4-.2 13.2 5 15.2 5.4.2 10-2.2 10.4-4 15.2.8 10.4 3.8 10.4 3.8 4.4-7.2 8-5 0 9.6 0 9.6 10.8 7 15.4 4.4c4.6-2.6 5.8-12.4 5.8-12.4.8-3.9-3.6-6.6-7.4-8.4z"/><path class="st20" d="M1035.4 715.3c-3.3-2.7-9.9-6.9-11.1-15.3-1.2-8.4-3.6-20.7-2.7-31.5.9-10.8-1.8-48-1.8-48s-6.3 3.3-12.9 3.6-13.5 0-13.5 0 6.3 18 7.2 28.5 2.7 37.5 7.5 46.8 11.1 29.4 16.2 33.3c5.1 3.9 9.6-1.2 11.1-5.4s3.3-9.3 0-12z"/><path class="st22" d="M1060.8 608.2c-11.5.2-16.4-2.2-19 4.6-2.6 6.7 2.4 33.8 2.4 33.8l-47 167.5h-21.6s-15.4 38.7-15.2 46.2 6.8 19 20.7 17.9 20.5-6.8 27.5-15.4c7-8.5 20.1-48.7 20.1-48.7h-22.2l46.2-167.5s11.2-19.1 13-23 6.6-15.5-4.9-15.4zm-1.9 12l-5.6 13.4c-.4.9-1.2 1.4-2.2 1.4-1.3 0-2.4-1.1-2.4-2.4v-13.4c0-1.3 1.1-2.4 2.4-2.4h5.6c1.7.2 2.8 1.9 2.2 3.4z"/><path class="st20" d="M1123.8 530.9s-1 9.3-6 13.9-16.7 5.7-16.7 5.7l6.9 9.3s-19.8 16.5-23.9 22.4c-4.1 6-11.5 11-15.3 14.6s-13.4 8.6-15.3 10.3-1.6 4.7 2.2 4.3c2.2-.3 3.6-.8 5.3-1.7 2.9-1.6 6-.4 6.8 4.1.7 4.5-3.3 11.9-3.3 11.9s1.2-1.2 6-4.5 9.8-11.5 11.2-16.9c1.4-5.5 5-7.2 11.9-13.4s29.8-17.7 37-22.4 9.5-11.2 8.6-16.2c-.8-5.2-15.4-21.4-15.4-21.4z"/><path class="st23" d="M1024.2 531.6c-5.7-.5-10.6 5-10.6 5s1.9 4.5 3.4 7.6c7.5 2.9 15.2-2.1 15.2-2.1s-2.3-10-8-10.5z"/><path class="st24" d="M960.4 859.8c.4 18.7 19.3 18.3 19.3 18.3l21-64.1h-25.2c.1.1-15.4 29.9-15.1 45.8z"/></svg>