<?xml version="1.0" encoding="utf-8"?>
<!-- Generator: Adobe Illustrator 22.0.1, SVG Export Plug-In . SVG Version: 6.00 Build 0)  -->
<svg version="1.1" id="Layer_1" xmlns="http://www.w3.org/2000/svg" xmlns:xlink="http://www.w3.org/1999/xlink" x="0px" y="0px"
	 viewBox="0 0 1920 384" preserveAspectRatio="xMaxYMax" style="enable-background:new 0 0 1920 384;" xml:space="preserve">
<style type="text/css">
	.st0{fill:none;}
	.st1{fill:#518360;}
	.st2{fill:#FAFFFF;}
	.st3{fill:#FFD56C;}
	.st4{fill:#89B636;}
	.st5{fill:#273654;}
	.st6{fill:#BF0000;}
	.st7{fill:#BBECFF;}
	.st8{fill:#FFFFFF;}
	.st9{fill:#3C6B5F;}
	.st10{fill:#0A606B;}
</style>
<g>
	<rect x="0" y="0" class="st0" width="1920" height="384"/>
	<path class="st0" d="M366.1,296.4c-131.5,4.5-99.4,6.5-186.4,74L9.8,384h1900.8l-281-23.7c-120.1-33.2-459.9-121.6-679.7-121.6
		C679.1,238.7,532.3,296.4,366.1,296.4"/>
	<path class="st1" d="M366.1,296.4c-131.5,4.5-99.4,6.5-186.4,74L9.8,384h1900.8l-281-23.7c-120.1-33.2-459.9-121.6-679.7-121.6
		C679.1,238.7,532.3,296.4,366.1,296.4"/>
	<path class="st2" d="M574.4,273.8c-4.8,3.7,4.2,5.6,31.5,0.9c50.9-8.7,37.7,15.4,100-6.9c20.7-7.4,21.8,20.6,51.2,10.5
		c25.6-8.8,32.9-15.4,67-15.4c30.5,0,59.9,14.2,96.2,12.7c36.3-1.5,97.6-28.2,103-3.6c2.7,12.2,14,10.6,23.5-1.7
		c12.4-16.2,91.3-12.4,89.3,1.3c-2.2,14.9,20.3,16.4,26.6,5.9c13.2-22.1,77.4-2.6,82.8-2c16.4,1.7,19.4-4.4,6.2-7.9
		c-30.7-8.3-188.5-36-333.7-36C819.6,231.4,593,259.6,574.4,273.8"/>
	<rect x="0" y="0" class="st0" width="1920" height="384"/>
	<path class="st3" d="M1773.2,327.3c-0.1,1.8-1.5,3.1-3.3,3.1c-1.8-0.1-3.1-1.5-3.1-3.3c0.1-1.8,1.5-3.1,3.3-3.1
		C1771.8,324.1,1773.2,325.6,1773.2,327.3"/>
	<path class="st2" d="M1917.2,380c-37.1-50.3-96.8-56.1-201.9-56.1c-97.3,0-131.7-61-241.6-61c-97.5,0-125.3,98.9-326.4,98.9
		c-23.4,0-28.1,11.5-7.8,22.2h777.8V380z"/>
	<path class="st2" d="M853.1,376.4c-241.5,0-275.3-90.9-518.8-90.9c-102.6,0-189.3,61-251.8,61c-13.2,0-61.7,9.5-82.6,29v8.4h863.4
		C870.6,379.7,869.2,376.4,853.1,376.4z"/>
	<g>
		<path class="st4" d="M219.6,131.9c-5.1,0-52.5,164.5-47.7,170.2c4.8,5.7,24.4,13.1,47,13.1s42.8-10.8,44.4-15
			C264.8,295.9,227.7,131.9,219.6,131.9"/>
		<polygon class="st5" points="237.1,261.8 219.8,279.3 219.8,184.7 217.6,184.7 217.6,249.6 200.3,232.3 198.9,233.7 217.6,252.6 
			217.6,262.7 200.3,245.3 198.7,246.9 217.6,265.7 217.6,338.6 219.8,338.6 219.8,282.3 238.7,263.4 		"/>
		<path class="st2" d="M218.8,128.1c3.6,0,8,10.6,9.7,19.7c0.6,3.3-4.4,2.1-4.4-1.5c0-2.9-4.3-0.4-4.3,13.2c0,23.4-7.5,21.7-7.5,15
			c0-16.4-5.3-7.4-5.3,8.7c0,11.6-5.7,23-11,23c-5.3,0-0.7-16.2,5.6-38C207.9,146.5,215.2,128.1,218.8,128.1"/>
		<path class="st6" d="M202.9,282.8c0,2.3-1.8,4.1-4.1,4.1c-2.3,0-4.1-1.8-4.1-4.1c0-2.3,1.8-4.1,4.1-4.1
			C201,278.6,202.9,280.5,202.9,282.8"/>
		<path class="st6" d="M209.6,218.5c-0.1,2.1-1.8,3.7-3.9,3.7c-2.1-0.1-3.7-1.8-3.7-3.9c0.1-2.1,1.8-3.7,3.9-3.7
			C208,214.6,209.6,216.4,209.6,218.5"/>
		<path class="st3" d="M238.7,245.6c-0.1,2.1-1.8,3.7-3.9,3.7c-2.1-0.1-3.7-1.8-3.7-3.9c0.1-2.1,1.8-3.7,3.9-3.7
			C237.1,241.7,238.7,243.5,238.7,245.6"/>
		<path class="st7" d="M245.8,295.8c-0.1,1.9-1.7,3.5-3.6,3.4c-1.9-0.1-3.5-1.7-3.4-3.6c0.1-1.9,1.7-3.5,3.6-3.4
			C244.4,292.2,245.9,293.8,245.8,295.8"/>
	</g>
	<g>
		<path class="st5" d="M444.8,155.6c-5.1,0-52.5,164.5-47.7,170.2c4.8,5.7,24.4,13.1,47,13.1c22.6,0,42.8-10.8,44.4-15
			C490,319.6,452.9,155.6,444.8,155.6"/>
		<polygon class="st8" points="462.3,285.5 445,303 445,208.5 442.9,208.5 442.9,273.3 425.5,256 424.1,257.4 442.9,276.3 
			442.9,286.4 425.5,269.1 423.9,270.7 442.9,289.4 442.9,362.4 445,362.4 445,306 463.9,287.1 		"/>
		<path class="st2" d="M447.3,148.5c-2.7,0-8.2,14.7-10,21.8c-0.8,3.1,4.3,2,4.3-1.4c0-2.8,4.3-0.4,4.3,12.9
			c0,22.9,7.4,21.2,7.4,14.6c0-16.1,5.2-7.2,5.2,8.5c0,6.6,5.2,8.4,5.2,0.1C463.6,185.4,450,148.5,447.3,148.5"/>
		<path class="st7" d="M437.6,239.1c-0.1,1.9-1.7,3.5-3.6,3.4c-1.9-0.1-3.5-1.7-3.4-3.6c0.1-1.9,1.7-3.5,3.6-3.4
			C436.2,235.5,437.7,237.2,437.6,239.1"/>
		<path class="st6" d="M461.1,265.5c0,2.1-1.7,3.8-3.8,3.8c-2.1,0-3.8-1.7-3.8-3.8s1.7-3.8,3.8-3.8
			C459.4,261.7,461.1,263.4,461.1,265.5"/>
		<path class="st3" d="M431,313.6c-0.1,1.9-1.7,3.5-3.6,3.4c-1.9-0.1-3.5-1.7-3.4-3.6c0.1-1.9,1.7-3.5,3.6-3.4
			C429.5,310.1,431,311.7,431,313.6"/>
	</g>
	<g>
		<path class="st9" d="M304.4,273c8.7-1.6,14.5-4.1,14.5-7.2c0-3.5-12.7-28.4-24.2-47.5c7.4-1.1,12.7-3,12.7-5.5
			c0-4.1-25.3-50.5-29.3-50.5c-5.3,0-31.1,46.3-29.2,52.3c0.5,1.8,4.9,3.2,11,3.9c-11.7,19.3-24,44.5-22.3,49.8
			c0.7,2.5,6.9,4.2,15.4,5.5c-12.2,21.6-24.4,45.4-24.4,48.9c0,7.1,24.9,11.1,49.1,11.1c24.4,0,47.2-2.8,48.9-8.3
			C328.9,320.2,317.1,295.1,304.4,273z"/>
		<polygon class="st8" points="291.5,256.3 290.3,255 279.5,266 279.5,205.2 277.7,205.2 277.7,319.9 265.2,307.3 264,308.6 
			277.7,322.3 277.7,367.1 279.5,367.1 279.5,268.4 		"/>
		<path class="st2" d="M278.6,157.4c-4.5,0-10.9,14.1-12.2,17c-1.3,2.9,1,6.3,6.7,2.9c3.9-2.2,9.6-1.7,9.6,2.8s4.5,9.4,7.2,7.5
			c2.7-1.9,3,9,8.8,9S286,157.4,278.6,157.4"/>
		<path class="st7" d="M313.2,310.4c-0.1,1.9-1.7,3.5-3.6,3.4c-1.9-0.1-3.5-1.7-3.4-3.6c0.1-1.9,1.7-3.5,3.6-3.4
			C311.8,306.8,313.3,308.4,313.2,310.4"/>
		<path class="st6" d="M296.7,234.9c0,2.1-1.7,3.8-3.8,3.8c-2.1,0-3.8-1.7-3.8-3.8c0-2.1,1.7-3.8,3.8-3.8
			C295,231.1,296.7,232.8,296.7,234.9"/>
		<path class="st3" d="M272.8,278c-0.1,1.9-1.7,3.5-3.6,3.4c-1.9-0.1-3.5-1.7-3.4-3.6c0.1-1.9,1.7-3.5,3.6-3.4
			C271.4,274.4,272.9,276.1,272.8,278"/>
		<path class="st3" d="M265.6,204.5c-0.1,2.1-1.8,3.7-3.9,3.7c-2.1-0.1-3.7-1.8-3.7-3.9c0.1-2.1,1.8-3.7,3.9-3.7
			C264.1,200.7,265.7,202.4,265.6,204.5"/>
	</g>
	<g>
		<path class="st10" d="M360.2,205.5l15-13.4c-5.7-31.1-15.7-71-33-111.5c-9.7,21.7-17.1,44.2-22.8,65l15,16.4l-18.2-4.4
			c-10.1,41.3-13.4,76-13.4,89.8c0,21.7,17.5,44.9,39.2,44.9s39.2-23.1,39.2-44.9c0-8.3-1.1-23.7-4.2-43.6L360.2,205.5z"/>
		<polygon class="st5" points="365.2,235.3 364.1,233.4 344.5,245.4 346.4,122 344.3,122 343.1,194 324.2,180.2 322.9,181.8 
			342.9,196.4 343.1,196.3 342.9,207.7 320.1,191.1 318.9,192.9 342.9,210.4 341.1,323.3 343.3,323.3 344.3,247.9 		"/>
		<path class="st2" d="M314.5,152.4c-4.8,1.5-9.4,25.4-5.6,28.9c5.4,5,5.8-16.2,11.2-12.3c5.4,3.9,17.3,3.4,19.2-1.9
			C341.2,161.9,319.3,150.8,314.5,152.4"/>
		<path class="st2" d="M343.7,76.2c-4.7,0-10.7,14.1-12.9,26.2c-0.8,4.4,5.8,2.7,5.8-1.9c0-3.9,5.8-0.5,5.8,17.5
			c0,31.2,10,28.9,10,19.9c0-21.8,7.1-9.8,7.1,11.6c0,9,4.2,30.5,11.2,30.6c7,0,4.2-21.6-4.1-50.5
			C358.2,100.6,348.5,76.2,343.7,76.2"/>
		<path class="st2" d="M378.5,201.6c-3-3-16.4-2.2-17.4,2c-1.5,6,5.8,2.4,9.4,6c5,5,3.5,16.5,6.5,19.5
			C380.3,232.3,383.8,206.9,378.5,201.6"/>
		<path class="st6" d="M332.3,232.2c-0.1,2.1-1.8,3.7-3.9,3.7c-2.1-0.1-3.7-1.8-3.7-3.9c0.1-2.1,1.8-3.7,3.9-3.7
			C330.7,228.3,332.4,230.1,332.3,232.2"/>
		<path class="st3" d="M361.4,259.3c-0.1,2.1-1.8,3.7-3.9,3.7c-2.1-0.1-3.7-1.8-3.7-3.9c0.1-2.1,1.8-3.7,3.9-3.7
			C359.8,255.5,361.5,257.2,361.4,259.3"/>
		<path class="st3" d="M336,132.1c-0.1,2.1-1.8,3.7-3.9,3.7c-2.1-0.1-3.7-1.8-3.7-3.9s1.8-3.7,3.9-3.7
			C334.5,128.3,336.1,130,336,132.1"/>
	</g>
	<g>
		<path class="st5" d="M125.3,313c5.4-1,9-2.5,9-4.5c0-2.2-7.9-17.7-15.1-29.6c4.6-0.7,7.9-1.9,7.9-3.4c0-2.5-15.7-31.5-18.3-31.5
			c-3.3,0-19.4,28.8-18.2,32.6c0.3,1.1,3.1,2,6.8,2.4c-7.3,12-15,27.7-13.9,31c0.4,1.5,4.3,2.6,9.6,3.4
			C85.6,326.9,78,341.7,78,343.9c0,4.4,15.5,6.9,30.6,6.9c15.2,0,29.4-1.8,30.5-5.2C140.6,342.4,133.2,326.8,125.3,313"/>
		<polygon class="st8" points="117.3,302.6 116.5,301.8 109.8,308.6 109.8,270.7 108.7,270.7 108.7,342.2 100.9,334.4 100.1,335.1 
			108.7,343.7 108.7,367.3 109.8,367.3 109.8,310.2 		"/>
		<path class="st2" d="M107.2,243.2c-4.3,0-13.7,18.7-12,21c2.3,3.2,4.9-11.3,8.7-11.3c2.6,0,0.8,8.9,4.8,8.9c2.2,0,2.8-6,4.6-4.1
			c3.8,4,6.8,10.3,9.7,10.3C127.6,268,114.8,243.2,107.2,243.2"/>
		<path class="st6" d="M129.3,337.9c-0.1,2.1-1.8,3.7-3.9,3.7c-2.1-0.1-3.7-1.8-3.7-3.9c0.1-2.1,1.8-3.7,3.9-3.7
			C127.7,334,129.4,335.8,129.3,337.9"/>
		<path class="st3" d="M100.6,301.2c-0.1,1.9-1.7,3.5-3.6,3.4c-1.9-0.1-3.5-1.7-3.4-3.6c0.1-1.9,1.7-3.5,3.6-3.4
			C99.1,297.6,100.7,299.3,100.6,301.2"/>
		<path class="st7" d="M120,291.1c-0.1,1.9-1.7,3.5-3.6,3.4c-1.9-0.1-3.5-1.7-3.4-3.6c0.1-1.9,1.7-3.5,3.6-3.4
			C118.5,287.6,120,289.2,120,291.1"/>
	</g>
	<g>
		<path class="st5" d="M1616.4,272.8c5.7-1.1,9.6-2.7,9.6-4.8c0-2.3-8.4-18.8-16-31.5c4.9-0.7,8.4-2,8.4-3.6
			c0-2.7-16.7-33.4-19.4-33.4c-3.5,0-20.6,30.6-19.3,34.6c0.4,1.2,3.3,2.1,7.2,2.6c-7.7,12.7-15.9,29.5-14.7,33
			c0.5,1.6,4.6,2.8,10.2,3.6c-8.1,14.3-16.1,30.1-16.1,32.4c0,4.7,16.5,7.4,32.5,7.4c16.1,0,31.2-1.9,32.4-5.5
			C1632.6,304.1,1624.8,287.5,1616.4,272.8"/>
		<polygon class="st8" points="1607.9,261.7 1607,260.9 1599.9,268.2 1599.9,228 1598.7,228 1598.7,303.8 1590.4,295.5 
			1589.6,296.4 1598.7,305.5 1598.7,342.5 1599.9,342.5 1599.9,269.8 		"/>
		<path class="st2" d="M1598.7,195.1c-4.1,0-9.8,12.7-11,15.4c-1.2,2.6,0.9,5.7,6.1,2.6c3.5-2,8.7-1.6,8.7,2.5
			c0,4.1,4.1,8.5,6.6,6.7c2.4-1.7,2.7,8.1,8,8.1C1622.2,230.5,1605.3,195.1,1598.7,195.1"/>
	</g>
	<g>
		<path class="st10" d="M1559.2,214.9l14.2-12.7c-5.3-29.4-14.9-67.1-31.2-105.3c-9.2,20.5-16.2,41.7-21.5,61.4l14.2,15.5l-17.2-4.2
			c-9.5,39.1-12.7,71.8-12.7,84.8c0,20.5,16.5,42.4,37,42.4c20.5,0,37-21.9,37-42.4c0-7.8-1-22.4-4-41.2L1559.2,214.9z"/>
		<polygon class="st5" points="1563.9,243.1 1562.9,241.2 1544.4,252.6 1546.2,136.1 1544.2,136.1 1543,204 1525.2,191 1524,192.5 
			1542.9,206.3 1543,206.2 1542.9,217 1521.3,201.3 1520.2,203 1542.9,219.5 1541.2,326.2 1543.2,326.2 1544.2,254.9 		"/>
		<path class="st2" d="M1517.8,166.2c-4.3,1.4-8.5,23-5.1,26.1c4.9,4.5,5.2-14.7,10.1-11.1c4.9,3.6,15.6,3.1,17.4-1.7
			C1542,174.8,1522.2,164.8,1517.8,166.2"/>
		<path class="st2" d="M1543.1,92.3c-4.3,0-9.7,12.7-11.6,23.7c-0.7,3.9,5.3,2.5,5.3-1.8c0-3.5,5.2-0.5,5.2,15.8
			c0,28.2,9.1,26.1,9.1,18c0-19.7,6.4-8.9,6.4,10.5c0,8.1,3.8,27.6,10.2,27.6c6.3,0,3.8-19.5-3.7-45.6
			C1556.3,114.4,1547.5,92.3,1543.1,92.3"/>
		<path class="st2" d="M1574.9,213c-2.7-2.7-14.8-2-15.7,1.8c-1.3,5.4,5.2,2.1,8.5,5.4c4.5,4.5,3.2,14.9,5.9,17.6
			C1576.6,240.8,1579.7,217.8,1574.9,213"/>
		<path class="st6" d="M1530.5,255.1c0,1.9-1.5,3.4-3.4,3.4c-1.9,0-3.4-1.5-3.4-3.4c0-1.9,1.5-3.4,3.4-3.4
			C1528.9,251.6,1530.5,253.2,1530.5,255.1"/>
		<path class="st6" d="M1563.9,196.9c-0.1,1.8-1.5,3.1-3.3,3.1c-1.8-0.1-3.1-1.5-3.1-3.3c0.1-1.8,1.5-3.1,3.3-3.1
			C1562.6,193.7,1563.9,195.2,1563.9,196.9"/>
		<path class="st3" d="M1526.8,219.8c-0.1,1.8-1.5,3.1-3.3,3.1c-1.8-0.1-3.1-1.5-3.1-3.3c0.1-1.8,1.5-3.1,3.3-3.1
			C1525.5,216.6,1526.8,218,1526.8,219.8"/>
		<path class="st3" d="M1532.3,150.5c-0.1,1.8-1.5,3.1-3.3,3.1c-1.8-0.1-3.1-1.5-3.1-3.3c0.1-1.8,1.5-3.1,3.3-3.1
			C1531,147.3,1532.3,148.8,1532.3,150.5"/>
		<path class="st3" d="M1559,262.2c-0.1,1.8-1.5,3.1-3.3,3.1s-3.1-1.5-3.1-3.3c0.1-1.8,1.5-3.1,3.3-3.1
			C1557.7,258.9,1559.1,260.4,1559,262.2"/>
	</g>
	<g>
		<path class="st10" d="M1741.5,180c-4,0-41.2,129.3-37.5,133.7c3.7,4.4,19.2,10.3,36.9,10.3s33.6-8.5,34.9-11.8
			C1777.1,308.9,1747.9,180,1741.5,180"/>
		<polygon class="st8" points="1755.3,282.1 1741.7,295.8 1741.7,221.5 1740,221.5 1740,272.5 1726.4,258.9 1725.3,260 1740,274.9 
			1740,282.8 1726.4,269.2 1725.1,270.4 1740,285.2 1740,342.5 1741.7,342.5 1741.7,298.2 1756.5,283.3 		"/>
		<path class="st2" d="M1740.8,175.8c3.2,0,7.3,9.6,8.7,17.8c0.5,3-4,1.9-4-1.3c0-2.6-3.9-0.4-3.9,11.9c0,21.2-6.8,19.6-6.8,13.5
			c0-14.8-4.8-6.7-4.8,7.9c0,10.5-5.1,20.7-9.9,20.8c-4.8,0-0.6-14.7,5.1-34.3C1730.9,192.4,1737.5,175.8,1740.8,175.8"/>
		<path class="st6" d="M1724.9,290.7c0,1.9-1.5,3.4-3.4,3.4c-1.9,0-3.4-1.5-3.4-3.4c0-1.9,1.5-3.4,3.4-3.4
			C1723.4,287.2,1724.9,288.8,1724.9,290.7"/>
		<path class="st7" d="M1757.8,266.4c-0.1,1.8-1.5,3.1-3.3,3.1c-1.8-0.1-3.1-1.5-3.1-3.3c0.1-1.8,1.5-3.1,3.3-3.1
			C1756.5,263.2,1757.9,264.7,1757.8,266.4"/>
		<path class="st3" d="M1754.6,230.6c-0.1,1.8-1.5,3.1-3.3,3.1c-1.8-0.1-3.1-1.5-3.1-3.3c0.1-1.8,1.5-3.1,3.3-3.1
			C1753.3,227.4,1754.7,228.9,1754.6,230.6"/>
	</g>
	<g>
		<path class="st4" d="M1802.6,298.8c5.7-1.1,9.6-2.7,9.6-4.7c0-2.3-8.4-18.7-15.9-31.2c4.9-0.7,8.4-2,8.4-3.6
			c0-2.7-16.6-33.2-19.3-33.2c-3.5,0-20.5,30.3-19.2,34.3c0.4,1.2,3.2,2.1,7.3,2.6c-7.7,12.7-15.8,29.4-14.7,32.7
			c0.5,1.6,4.5,2.8,10.2,3.6c-8.1,14.1-16,29.7-16,32.1c0,4.6,16.4,7.4,32.3,7.4c16,0,31-1.8,32.1-5.5
			C1818.8,329.8,1811,313.2,1802.6,298.8"/>
		<polygon class="st8" points="1794.1,281.6 1793.2,280.8 1786.1,287.9 1786.1,248 1784.9,248 1784.9,323.2 1776.7,315.1 
			1775.9,315.9 1784.9,324.9 1784.9,361.8 1786.1,361.8 1786.1,289.6 		"/>
		<path class="st2" d="M1785.1,226.1c-3.9,0-14.3,13.1-12.2,16.4c2.9,4.8,7.6-6.2,12.3-6.2c6.4,0,10.4,12.3,14.2,12.3
			C1803.5,248.6,1791.9,226.1,1785.1,226.1"/>
		<path class="st6" d="M1776.9,282.4c0,1.9-1.5,3.4-3.4,3.4c-1.9,0-3.4-1.5-3.4-3.4c0-1.9,1.5-3.4,3.4-3.4
			C1775.3,279,1776.9,280.5,1776.9,282.4"/>
		<path class="st6" d="M1811.5,312.6c-0.1,1.8-1.5,3.1-3.3,3.1c-1.8-0.1-3.1-1.5-3.1-3.3c0.1-1.8,1.5-3.1,3.3-3.1
			C1810.2,309.4,1811.6,310.8,1811.5,312.6"/>
		<path class="st3" d="M1797.3,254.9c-0.1,1.8-1.5,3.1-3.3,3.1c-1.8-0.1-3.1-1.5-3.1-3.3c0.1-1.8,1.5-3.1,3.3-3.1
			C1796,251.7,1797.4,253.2,1797.3,254.9"/>
	</g>
	<g>
		<path class="st4" d="M1652.9,259.8l8.9-7.9c-3.3-18.3-9.3-41.8-19.4-65.6c-5.7,12.8-10.1,26-13.4,38.3l8.9,9.7l-10.7-2.6
			c-5.9,24.3-7.9,44.7-7.9,52.8c0,12.8,10.3,26.5,23.1,26.5s23.1-13.6,23.1-26.5c0-4.9-0.6-14-2.5-25.7L1652.9,259.8z"/>
		<polygon class="st5" points="1654.9,282.9 1654.3,281.8 1642.7,288.8 1643.8,216.3 1642.6,216.3 1641.9,258.6 1630.8,250.4 
			1630.1,251.5 1641.8,260 1641.9,259.9 1641.8,266.7 1628.4,256.9 1627.6,257.9 1641.8,268.3 1640.8,334.7 1642,334.7 
			1642.7,290.3 		"/>
		<path class="st2" d="M1645,179.4c-2.4,0-7.4,13.3-9.1,19.7c-0.7,2.8,3.9,1.8,3.9-1.3c0-2.6,3.8-0.3,3.8,11.7
			c0,20.7,6.7,19.2,6.7,13.2c0-14.5,4.7-6.5,4.7,7.7c0,6,4.7,7.6,4.7,0C1659.7,212.8,1647.4,179.4,1645,179.4"/>
		<path class="st7" d="M1637.2,240.8c-0.1,1.8-1.5,3.1-3.3,3.1c-1.8-0.1-3.1-1.5-3.1-3.3c0.1-1.8,1.5-3.1,3.3-3.1
			C1635.9,237.6,1637.2,239.1,1637.2,240.8"/>
		<path class="st6" d="M1658.4,272c0,1.9-1.5,3.4-3.4,3.4c-1.9,0-3.4-1.5-3.4-3.4c0-1.9,1.5-3.4,3.4-3.4
			C1656.8,268.6,1658.4,270.1,1658.4,272"/>
		<path class="st3" d="M1637.3,285.8c-0.1,1.8-1.5,3.1-3.3,3.1c-1.8-0.1-3.1-1.5-3.1-3.3c0.1-1.8,1.5-3.1,3.3-3.1
			C1636,282.6,1637.3,284,1637.3,285.8"/>
	</g>
</g>
</svg>
