<?xml version="1.0" encoding="utf-8"?>
<!-- Generator: Adobe Illustrator 22.0.1, SVG Export Plug-In . SVG Version: 6.00 Build 0)  -->
<svg version="1.1" id="Layer_1" xmlns="http://www.w3.org/2000/svg" xmlns:xlink="http://www.w3.org/1999/xlink" x="0px" y="0px"
	 viewBox="0 0 25 25" style="enable-background:new 0 0 25 25;" xml:space="preserve">
<style type="text/css">
	.st0{fill:#D1392F;}
	.st1{fill:#EF3429;}
	.st2{fill:#F27168;}
</style>
<g>
	<path class="st0" d="M10.5,9.9C7,10.8,1.1,13.4,0,14.9l3.4,0.3l-0.6,2.4c3.3-1.2,8.8-6.9,8.8-6.9L10.5,9.9z"/>
	<path class="st1" d="M11.3,10.6c-1.5,0.8-5.9,2.3-8.6,1.6c-0.7-1.3-1.5-5.8,0.5-8c3.1,0.3,7.3,3,7.9,4.9L11.3,10.6z"/>
	<path class="st0" d="M13.3,10c2,0.4,5.3,2.3,7.8,4.3c2,1.5,3.4,3.1,3.9,3.8l-3.5,0.3l0.7,2.4c-1.5-0.5-3.2-2.8-5.1-5
		c-2.3-2.6-4.8-5.1-4.8-5.1L13.3,10z"/>
	<path class="st1" d="M12.5,10.6c1.5,0.8,5.9,2.3,8.6,1.6c0.7-1.3,1.5-5.8-0.5-8c-3.1,0.3-7.2,3-7.9,4.9L12.5,10.6z"/>
	<path class="st0" d="M7.8,9.9c0,0-2.3-0.1-1.2-1.1C8,8,11.3,9.7,11.3,9.7L7.8,9.9z"/>
	<path class="st0" d="M16.1,9.9c0,0,2.3-0.1,1.2-1.1c-1.4-0.8-4.7,0.9-4.7,0.9L16.1,9.9z"/>
	<path class="st2" d="M12.1,11.5c-0.8,0-1.7-1.5-1.3-3c1.3-1.1,2.4,0.1,2.4,0.1C13.9,10.3,12.9,11.6,12.1,11.5z"/>
</g>
</svg>
